<?xml version="1.0" encoding="UTF-8" standalone="no"?>
<!-- Created with Inkscape (http://www.inkscape.org/) -->

<svg
   xmlns:dc="http://purl.org/dc/elements/1.1/"
   xmlns:cc="http://creativecommons.org/ns#"
   xmlns:rdf="http://www.w3.org/1999/02/22-rdf-syntax-ns#"
   xmlns:svg="http://www.w3.org/2000/svg"
   xmlns="http://www.w3.org/2000/svg"
   xmlns:sodipodi="http://sodipodi.sourceforge.net/DTD/sodipodi-0.dtd"
   xmlns:inkscape="http://www.inkscape.org/namespaces/inkscape"
   width="99.057434mm"
   height="31.844494mm"
   viewBox="0 0 99.057434 31.844494"
   version="1.1"
   id="svg8"
   inkscape:version="0.92.0 r"
   sodipodi:docname="publicdomainq-0002084oagimh.svg">
  <defs
     id="defs2">
    <clipPath
       clipPathUnits="userSpaceOnUse"
       id="clipPath4825">
      <rect
         style="opacity:1;fill:#00ff00;fill-opacity:1;fill-rule:nonzero;stroke:none;stroke-width:1.99999988;stroke-linecap:square;stroke-linejoin:miter;stroke-miterlimit:4;stroke-dasharray:none;stroke-dashoffset:0;stroke-opacity:1;paint-order:normal"
         id="rect4827"
         width="374.39032"
         height="120.35715"
         x="119.81069"
         y="274.33398" />
    </clipPath>
  </defs>
  <sodipodi:namedview
     id="base"
     pagecolor="#ffffff"
     bordercolor="#666666"
     borderopacity="1.0"
     inkscape:pageopacity="0.0"
     inkscape:pageshadow="2"
     inkscape:zoom="1.979899"
     inkscape:cx="261.85116"
     inkscape:cy="110.25252"
     inkscape:document-units="mm"
     inkscape:current-layer="layer1"
     showgrid="false"
     showguides="false"
     inkscape:snap-global="false"
     inkscape:pagecheckerboard="true"
     inkscape:window-width="1887"
     inkscape:window-height="1015"
     inkscape:window-x="0"
     inkscape:window-y="23"
     inkscape:window-maximized="0" />
  <metadata
     id="metadata5">
    <rdf:RDF>
      <cc:Work
         rdf:about="">
        <dc:format>image/svg+xml</dc:format>
        <dc:type
           rdf:resource="http://purl.org/dc/dcmitype/StillImage" />
        <dc:title></dc:title>
      </cc:Work>
    </rdf:RDF>
  </metadata>
  <g
     inkscape:label="Layer 1"
     inkscape:groupmode="layer"
     id="layer1"
     transform="translate(79.241368,-121.12365)">
    <g
       id="Layer_1"
       transform="matrix(0.26458333,0,0,0.26458333,-110.94128,48.53945)"
       clip-path="url(#clipPath4825)">
      <path
         id="path4592"
         d="m 314.838,387.332 c 28.505,-0.963 148.831,-0.963 140.625,2.897 -5.653,2.637 -16.031,5.301 -22.036,6.722 0,0 -0.022,0 -0.063,0 l -252,-1.674 c -2.482,-6.763 7.08,-19.547 33.44,-21.494 32.85,-2.405 148.831,-4.816 164.785,-3.86 15.939,0.963 123.229,6.3 110.672,7.748 -12.586,1.449 -111.178,-4.844 -135.817,-3.396 -24.65,1.455 -124.192,6.757 -104.384,10.646 19.828,3.859 36.252,3.367 64.778,2.411"
         inkscape:connector-curvature="0"
         style="fill:#cfeaed" />
      <path
         id="path4596"
         d="m 158.062,350.214 c 0,0 1.737,6.469 4.599,8.171 2.18,1.314 -0.718,5.603 -0.718,5.603 0,0 -0.436,-3.86 -2.004,-5.02 -1.588,-1.16 -1.877,-8.754 -1.877,-8.754"
         inkscape:connector-curvature="0"
         style="fill:#885a41" />
      <path
         inkscape:connector-curvature="0"
         style="fill:#75c6d7"
         d="m 77.422991,455.7726 c -126.429009,0.39609 -252.856841,1.05605 -379.284871,1.6769 l 1.78571,66.24386 c 8.121,-9.773 23.08233,-15.80666 24.23633,-11.22266 1.251,4.992 6.20772,12.44532 16.76172,12.44532 3.45899,0 6.35668,-1.44691 8.92968,-3.25391 5.337,-3.678 9.25369,-8.78222 13.42969,-5.44922 6.23,4.957 9.94202,-0.60542 16.79102,-1.85742 4.316,-0.78 9.15434,-0.57686 12.90234,1.74414 17.051,-3.221 49.92969,-10.90567 78.05469,-25.88867 12.382,-6.623 23.83534,-14.6196 32.652341,-24.3086 l 6.201171,0.61328 3.712891,-1.25195 3.740235,1.89063 c 0,0 16.439187,14.14768 45.492187,27.42968 27.4349997,12.459 66.080579,24.12488 112.767578,22.29688 z"
         transform="translate(419.30563,-183.45619)"
         id="path4598"
         sodipodi:nodetypes="ccccscccccccccccc" />
      <path
         id="path4600"
         d="m 357.749,309.764 -19.251,-7.453 -4.352,4.985 -4.958,-4.985 -4.992,3.747 -5.561,-3.115 -9.949,5.597 -1.251,-5.597 -17.101,3.811 c 12.382,-6.623 23.836,-14.618 32.653,-24.307 l 6.201,0.612 3.713,-1.251 3.741,1.89 c 0,0 16.439,14.148 45.492,27.43 -12.762,-1.688 -24.996,-6.934 -24.996,-6.934 l 0.611,5.57"
         inkscape:connector-curvature="0"
         style="fill:#fffde8" />
      <path
         id="path4604"
         d="m 490.261,377.671 c 12.557,-1.448 -94.733,-6.785 -110.672,-7.748 -15.954,-0.956 -131.935,1.455 -164.785,3.86 -26.36,1.947 -35.922,14.731 -33.44,21.494 l -17.537,-0.126 c 1.274,-5.914 8.523,-13.598 24.35,-19.54 27.633,-10.35 128.58,-11.194 128.58,-11.194 3.558,-0.168 8.635,-0.203 14.892,-0.168 39.439,0.203 125.002,3.937 164.384,5.625 l 0.091,3.191 c -7.783,-1.975 -21.986,-0.09 -4.415,2.173 10.351,1.358 0.464,5.794 -22.233,5.33 -15.461,-0.338 -140.147,-1.448 -152.227,-0.984 -12.094,0.492 -57.044,4.669 -36.252,4.352 130.485,-1.919 176.877,2.433 180.267,6.293 2.636,3.016 -10.962,5.738 -17.016,6.786 l -10.821,-0.064 c 6.005,-1.421 16.383,-4.085 22.036,-6.722 8.206,-3.86 -112.12,-3.86 -140.625,-2.897 -28.526,0.956 -44.95,1.448 -64.778,-2.411 -19.808,-3.889 79.734,-9.191 104.384,-10.646 24.639,-1.448 123.231,4.845 135.817,3.396"
         inkscape:connector-curvature="0"
         style="fill:#91d1d9" />
      <path
         id="path4610"
         d="m 156.052,347.198 c 0.154,-1.019 2.727,-1.308 4.176,-1.421 3.572,-0.38 5.738,1.421 3.86,1.709 -1.857,0.288 -3.86,-0.436 -4.872,0.288 -1.014,0.725 -3.362,0.901 -3.164,-0.576"
         inkscape:connector-curvature="0"
         style="fill:#007f58" />
      <path
         id="path4614"
         d="m 167.709,373.847 c -4.374,4.464 -5.681,5.849 -5.337,8.64 0.443,3.305 -3.768,8.41 -9.07,8.41 -3.389,0 -3.797,2.433 -3.516,4.176 l -30.557,-0.211 v -12.663 c 5.913,1.533 18.471,0.633 20.129,-1.947 1.991,-3.073 10.407,-5.077 18.817,-4.873 3.276,0.085 6.546,-0.548 9.534,-1.532"
         inkscape:connector-curvature="0"
         style="fill:#319c6a" />
      <path
         id="path4616"
         d="m 154.054,351.804 c 1.421,-1.16 3.023,0.554 3.023,0.554 0.577,0.872 0,1.301 -1.602,0.872 -1.562,-0.435 -1.421,1.294 -3.305,2.292 -1.857,1.013 0.436,-2.586 1.884,-3.718"
         inkscape:connector-curvature="0"
         style="fill:#007f58" />
      <path
         id="path4618"
         d="m 162.372,382.487 c -0.344,-2.791 0.963,-4.176 5.337,-8.64 4.612,-1.512 8.501,-3.832 10.378,-5.309 2.067,-1.625 8.36,-2.876 13.373,-3.769 38.68,-1.477 84.607,-2.7 116.859,-1.829 9.008,0.261 16.925,0.668 23.33,1.309 -6.257,-0.035 -11.334,0 -14.892,0.168 0,0 -100.947,0.844 -128.58,11.194 -15.827,5.942 -23.076,13.626 -24.35,19.54 l -14.041,-0.078 c -0.281,-1.743 0.127,-4.176 3.516,-4.176 5.302,0 9.513,-5.105 9.07,-8.41"
         inkscape:connector-curvature="0"
         style="fill:#f0c381" />
      <path
         id="path4622"
         d="m 167.709,373.847 c -2.988,0.984 -6.258,1.617 -9.534,1.532 -8.41,-0.204 -16.826,1.8 -18.817,4.873 -1.658,2.58 -14.216,3.48 -20.129,1.947 v -19.638 c 5.104,-2.46 10.377,-6.87 14.153,-2.665 3.769,4.205 8.178,4.641 10.843,3.537 2.671,-1.104 15.954,0.232 19.926,2.671 3.995,2.434 5.534,-3.775 10.407,-3.775 2.052,0 7.045,0.092 11.889,0.232 6.638,0.204 12.958,0.583 10.899,1.104 -1.189,0.295 -3.368,0.675 -5.886,1.104 -5.013,0.893 -11.306,2.144 -13.373,3.769 -1.877,1.477 -5.766,3.797 -10.378,5.309"
         inkscape:connector-curvature="0"
         style="fill:#724135" />
      <path
         id="path4624"
         d="m 137.151,335.104 c 5.485,-0.555 8.838,2.207 5.977,2.637 -2.904,0.464 -5.977,-0.668 -7.545,0.464 -1.539,1.104 -5.195,1.399 -4.865,-0.894 0.224,-1.539 4.197,-2.003 6.433,-2.207"
         inkscape:connector-curvature="0"
         style="fill:#007f58" />
      <path
         id="path4626"
         d="m 391.177,340.44 c -11.096,-0.963 -49.781,-22.703 -44.446,-14.491 5.302,8.234 -4.843,28.99 -9.681,21.741 -4.817,-7.25 -7.721,-25.601 -10.154,-15.954 -2.405,9.689 -17.395,21.29 -18.351,16.447 -0.929,-4.669 -20.384,6.468 -39.579,10.265 -1.195,-0.577 -2.264,-1.449 -3.136,-2.7 -4.339,-6.229 -19.245,-9.942 -28.582,-9.331 -9.316,0.633 -16.763,0.633 -19.863,-7.453 -1.132,-2.96 -2.933,-4.985 -5.105,-6.32 17.051,-3.221 49.929,-10.907 78.054,-25.89 l 17.101,-3.811 1.251,5.597 9.949,-5.597 5.561,3.115 4.992,-3.747 4.958,4.985 4.352,-4.985 19.251,7.453 -0.611,-5.57 c 0,0 12.234,5.246 24.996,6.934 27.435,12.459 66.08,24.124 112.767,22.296 l 0.317,10.321 c -16.854,-0.519 -80.754,-3.937 -125.29,-26.008 0,0 32.358,23.688 21.249,22.703"
         inkscape:connector-curvature="0"
         style="fill:#abd9d4" />
      <path
         id="path4628"
         d="m 133.818,341.952 c 0,0 2.665,9.971 7.074,12.636 3.361,2.004 -1.104,8.613 -1.104,8.613 0,0 -0.661,-5.976 -3.101,-7.741 -2.44,-1.766 -2.869,-13.508 -2.869,-13.508"
         inkscape:connector-curvature="0"
         style="fill:#885a41" />
      <path
         id="path4630"
         d="m 163.8,353.09 c -2.434,0 -5.161,-1.286 -3.572,-2.299 1.54,-0.984 6.876,0.141 7.312,1.567 0.436,1.45 1.449,4.902 -0.288,3.882 -1.716,-1.013 -0.991,-3.15 -3.452,-3.15"
         inkscape:connector-curvature="0"
         style="fill:#007f58" />
      <path
         id="path4632"
         d="m 142.663,346.382 c 3.77,0 2.658,3.34 5.33,4.88 2.637,1.561 1.098,-3.776 0.436,-5.977 -0.66,-2.208 -8.901,-3.951 -11.278,-2.439 -2.433,1.54 1.765,3.536 5.512,3.536 z m 14.414,5.976 c 0,0 -1.602,-1.714 -3.023,-0.554 -1.448,1.132 -3.741,4.731 -1.884,3.718 1.884,-0.998 1.743,-2.727 3.305,-2.292 1.602,0.429 2.179,0 1.602,-0.872 z m 41.162,4.867 c -5.534,-1.07 -10.027,3.164 -11.792,5.336 -4.844,-0.14 -9.837,-0.232 -11.889,-0.232 -4.873,0 -6.412,6.209 -10.407,3.775 -3.972,-2.439 -17.255,-3.775 -19.926,-2.671 -2.665,1.104 -7.074,0.668 -10.843,-3.537 -3.776,-4.205 -9.049,0.205 -14.153,2.665 v -22.324 c 8.121,-9.773 23.083,-15.806 24.237,-11.222 1.251,4.992 6.208,12.445 16.762,12.445 3.459,0 6.356,-1.448 8.929,-3.255 9.134,3.192 15.462,-1.132 21.115,0 6.645,1.314 2.672,5.977 9.078,10.617 6.433,4.669 12.838,2.665 21.922,1.765 9.071,-0.865 18.613,2.665 18.374,5.97 -0.225,3.339 13.718,-0.429 13.95,2.439 0.231,2.898 -18.148,3.565 -23.253,0.661 -5.076,-2.861 -11.946,-3.755 -13.949,-1.322 -1.998,2.434 -11.279,0.226 -18.155,-1.11 z m -35.578,1.16 c -2.862,-1.702 -4.599,-8.171 -4.599,-8.171 0,0 0.289,7.594 1.877,8.754 1.568,1.16 2.004,5.02 2.004,5.02 0,0 2.898,-4.289 0.718,-5.603 z m -32.815,-11.764 c 2.432,0.661 3.304,0 2.432,-1.336 0,0 -2.432,-2.665 -4.662,-0.899 -2.207,1.793 -5.751,7.304 -2.875,5.765 2.875,-1.533 2.672,-4.205 5.105,-3.53 z m 11.046,7.967 c -4.409,-2.665 -7.074,-12.636 -7.074,-12.636 0,0 0.429,11.742 2.869,13.508 2.44,1.765 3.101,7.741 3.101,7.741 0,0 4.465,-6.609 1.104,-8.613 z m 18.324,-6.814 c 1.012,-0.724 3.015,0 4.872,-0.288 1.878,-0.288 -0.288,-2.089 -3.86,-1.709 -1.449,0.113 -4.022,0.402 -4.176,1.421 -0.198,1.477 2.15,1.301 3.164,0.576 z m -16.088,-10.033 c 2.861,-0.43 -0.492,-3.192 -5.977,-2.637 -2.236,0.204 -6.209,0.668 -6.433,2.207 -0.33,2.293 3.326,1.998 4.865,0.894 1.568,-1.132 4.641,0 7.545,-0.464 z m 17.1,13.05 c -1.589,1.013 1.138,2.299 3.572,2.299 2.461,0 1.736,2.137 3.452,3.15 1.737,1.02 0.724,-2.432 0.288,-3.882 -0.436,-1.426 -5.772,-2.551 -7.312,-1.567"
         inkscape:connector-curvature="0"
         style="fill:#319c6a" />
      <path
         id="path4634"
         d="m 346.731,325.949 c -5.335,-8.212 33.35,13.528 44.446,14.491 11.109,0.985 -21.249,-22.703 -21.249,-22.703 44.536,22.071 108.436,25.489 125.29,26.008 l 0.815,26.129 c -39.382,-1.688 -124.945,-5.422 -164.384,-5.625 -6.405,-0.641 -14.322,-1.048 -23.33,-1.309 -3.656,-2.461 -16.045,-5.308 -22.626,-4.717 -5.421,0.513 -12.058,2.573 -16.727,0.225 19.195,-3.797 38.65,-14.934 39.579,-10.265 0.956,4.843 15.946,-6.758 18.351,-16.447 2.433,-9.647 5.337,8.704 10.154,15.954 4.838,7.249 14.983,-13.507 9.681,-21.741"
         inkscape:connector-curvature="0"
         style="fill:#81c9c5" />
      <path
         id="path4636"
         d="m 461.264,390.229 c -3.39,-3.86 -49.782,-8.212 -180.267,-6.293 -20.792,0.317 24.158,-3.86 36.252,-4.352 12.08,-0.464 136.766,0.646 152.227,0.984 22.697,0.464 32.584,-3.972 22.233,-5.33 -17.571,-2.263 -3.368,-4.148 4.415,-2.173 l 0.746,24.293 -52.622,-0.343 c 6.054,-1.048 19.652,-3.77 17.016,-6.786"
         inkscape:connector-curvature="0"
         style="fill:#cfeaed" />
      <path
         id="path4640"
         d="m 186.447,362.561 c 1.765,-2.172 6.258,-6.406 11.792,-5.336 6.876,1.336 16.157,3.544 18.155,1.11 2.003,-2.433 8.873,-1.539 13.949,1.322 5.105,2.904 23.484,2.237 23.253,-0.661 -0.232,-2.868 -14.175,0.9 -13.95,-2.439 0.239,-3.305 -9.303,-6.835 -18.374,-5.97 -9.084,0.9 -15.489,2.904 -21.922,-1.765 -6.406,-4.64 -2.433,-9.303 -9.078,-10.617 -5.653,-1.132 -11.981,3.192 -21.115,0 5.337,-3.678 9.254,-8.782 13.43,-5.449 6.23,4.957 9.942,-0.605 16.791,-1.857 4.316,-0.78 9.154,-0.576 12.902,1.745 2.172,1.335 3.973,3.36 5.105,6.32 3.1,8.086 10.547,8.086 19.863,7.453 9.337,-0.611 24.243,3.102 28.582,9.331 0.872,1.251 1.941,2.123 3.136,2.7 4.669,2.348 11.306,0.288 16.727,-0.225 6.581,-0.591 18.97,2.256 22.626,4.717 -32.252,-0.871 -78.179,0.352 -116.859,1.829 2.518,-0.429 4.697,-0.809 5.886,-1.104 2.059,-0.521 -4.261,-0.9 -10.899,-1.104"
         inkscape:connector-curvature="0"
         style="fill:#007f58" />
      <path
         id="path4642"
         d="m 147.993,351.262 c -2.672,-1.54 -1.56,-4.88 -5.33,-4.88 -3.747,0 -7.945,-1.996 -5.512,-3.536 2.377,-1.512 10.618,0.231 11.278,2.439 0.662,2.201 2.201,7.538 -0.436,5.977"
         inkscape:connector-curvature="0"
         style="fill:#007f58" />
      <path
         id="path4644"
         d="m 132.278,345.285 c 0.872,1.336 0,1.997 -2.432,1.336 -2.433,-0.675 -2.23,1.997 -5.105,3.53 -2.876,1.539 0.668,-3.972 2.875,-5.765 2.23,-1.766 4.662,0.899 4.662,0.899"
         inkscape:connector-curvature="0"
         style="fill:#007f58" />
    </g>
  </g>
</svg>
