<?xml version="1.0" encoding="UTF-8" standalone="no"?>
<!-- Created with Inkscape (http://www.inkscape.org/) -->
<svg
   xmlns:dc="http://purl.org/dc/elements/1.1/"
   xmlns:cc="http://creativecommons.org/ns#"
   xmlns:rdf="http://www.w3.org/1999/02/22-rdf-syntax-ns#"
   xmlns:svg="http://www.w3.org/2000/svg"
   xmlns="http://www.w3.org/2000/svg"
   xmlns:sodipodi="http://sodipodi.sourceforge.net/DTD/sodipodi-0.dtd"
   xmlns:inkscape="http://www.inkscape.org/namespaces/inkscape"
   version="1.0"
   width="1608.0071"
   height="1370.7944"
   id="svg2649"
   sodipodi:version="0.32"
   inkscape:version="0.46"
   sodipodi:docname="hotspringsinjapan.svg"
   inkscape:output_extension="org.inkscape.output.svg.inkscape">
  <metadata
     id="metadata22">
    <rdf:RDF>
      <cc:Work
         rdf:about="">
        <dc:format>image/svg+xml</dc:format>
        <dc:type
           rdf:resource="http://purl.org/dc/dcmitype/StillImage" />
      </cc:Work>
    </rdf:RDF>
  </metadata>
  <sodipodi:namedview
     inkscape:window-height="813"
     inkscape:window-width="1073"
     inkscape:pageshadow="2"
     inkscape:pageopacity="0.0"
     guidetolerance="10.0"
     gridtolerance="10.0"
     objecttolerance="10.0"
     borderopacity="1.0"
     bordercolor="#666666"
     pagecolor="#ffffff"
     id="base"
     showgrid="false"
     inkscape:zoom="0.40120419"
     inkscape:cx="562.42198"
     inkscape:cy="802.46796"
     inkscape:window-x="4"
     inkscape:window-y="0"
     inkscape:current-layer="layer1" />
  <defs
     id="defs2651">
    <inkscape:perspective
       sodipodi:type="inkscape:persp3d"
       inkscape:vp_x="0 : 526.18109 : 1"
       inkscape:vp_y="0 : 1000 : 0"
       inkscape:vp_z="744.09448 : 526.18109 : 1"
       inkscape:persp3d-origin="372.04724 : 350.78739 : 1"
       id="perspective24" />
  </defs>
  <g
     id="layer1"
     transform="translate(398.25483,278.09388)">
    <path
       d="M -19.792619,621.87273 L 295.2399,466.83055 L 422.24253,445.38854 L 692.74165,443.73916 L 1144.6731,578.98872 L 1180.9596,694.44566 L 1185.9077,719.18644 L 1146.3225,737.32967 L 1152.92,768.66798 L 1057.2557,828.04584 L 691.09227,943.50278 L 651.50703,958.34724 L 219.36819,976.49048 C 219.36819,976.49048 28.039543,803.30506 31.338313,796.70752 C 34.637083,790.10999 -24.740773,615.27519 -19.792619,621.87273 z"
       id="path2727"
       style="fill:#6884f7;fill-opacity:1;fill-rule:evenodd;stroke:#000000;stroke-width:18;stroke-linecap:round;stroke-linejoin:round;stroke-miterlimit:4;stroke-dasharray:none;stroke-opacity:1" />
    <path
       d="M 8.2469244,610.32703 L 204.52373,582.28749 L 286.78719,558.93809 L 313.84692,506.56935 L 268.84974,428.89469 L 194.66425,406.49907 L 176.48418,321.68468 L 77.52109,306.84021 L 75.871705,356.32176 L 87.417399,414.05023 L 33.683457,439.74463 L -11.751478,506.98091 L -41.440406,602.64523 L 8.2469244,610.32703 z"
       id="path2717"
       style="fill:#efcd96;fill-opacity:1;fill-rule:evenodd;stroke:#000000;stroke-width:18;stroke-linecap:round;stroke-linejoin:round;stroke-miterlimit:4;stroke-dasharray:none;stroke-opacity:1"
       sodipodi:nodetypes="cccccccccccccc" />
    <path
       style="fill:none;fill-rule:evenodd;stroke:#000000;stroke-width:18;stroke-linecap:round;stroke-linejoin:round;stroke-miterlimit:4;stroke-dasharray:none;stroke-opacity:1"
       d="M 31.697656,553.65239 L 19.018594,604.36864"
       id="path3187" />
    <path
       d="M -74.22232,532.80594 L -168.23726,539.40348 L -230.91388,570.7418 L -260.60281,635.06781 L -348.02021,664.75673 L -389.25483,818.14953 L -286.99297,831.34461 L -295.2399,913.81385 L -280.39543,961.64601 L -285.34359,1004.53 L -171.53603,994.63371 L -115.45694,1024.3226 L -19.792619,1035.8683 L 46.182777,1001.2313 L 151.74341,1001.2313 L 268.84974,1014.4263 L 305.1362,986.38679 L 381.00791,971.54232 C 381.00791,971.54232 460.17838,981.43863 455.23023,973.19171 C 450.28207,964.94478 437.087,912.16447 437.087,912.16447 L 397.50176,877.52738 L 334.82513,894.02123 L 318.33128,847.83846 L 219.36819,842.8903 L 113.80756,824.74707 L 95.664324,740.62844 L 51.130932,676.30243 L 36.286468,613.6258 L -6.5975396,587.23564 L -44.533392,569.09241 L -74.22232,532.80594 z"
       id="path2709"
       style="fill:#b3a5a5;fill-opacity:1;fill-rule:evenodd;stroke:#000000;stroke-width:18;stroke-linecap:round;stroke-linejoin:round;stroke-miterlimit:4;stroke-dasharray:none;stroke-opacity:1" />
    <path
       d="M -291.94113,930.3077 L -219.36819,874.22861 L -112.15817,841.24092 L -3.2987698,851.13723 L 31.338313,793.40876 L 60.494322,808.78614 L 112.69832,821.96675"
       id="path2711"
       style="fill:none;fill-rule:evenodd;stroke:#000000;stroke-width:18;stroke-linecap:round;stroke-linejoin:round;stroke-miterlimit:4;stroke-dasharray:none;stroke-opacity:1"
       sodipodi:nodetypes="ccccccc" />
    <path
       d="M 392.5536,451.98608 L 578.9341,470.12932 L 700.98858,511.36394 L 925.30492,565.79364 L 991.28032,578.98872 L 1004.4754,603.72949 L 1052.3076,607.02826 L 1072.1002,661.45796 L 1200.7522,653.21104 L 1161.5984,491.69696 L 1120.1726,454.76599 L 1055.6063,475.07747 L 973.13708,407.45269 L 941.79877,362.9193 L 541.01499,363.01977 L 480.72871,337.97758 L 435.43761,362.9193 L 394.15275,377.68004 L 359.5994,412.3841 L 359.46544,455.3016 L 392.5536,451.98608 z"
       id="path2715"
       style="fill:#b3a5a5;fill-opacity:1;fill-rule:evenodd;stroke:#000000;stroke-width:18;stroke-linecap:round;stroke-linejoin:round;stroke-miterlimit:4;stroke-dasharray:none;stroke-opacity:1"
       sodipodi:nodetypes="ccccccccccccccccccccc" />
    <path
       d="M -46.182777,123.75849 L -37.935852,219.42281 L -3.2987698,235.91666 C 2.7489748,249.66154 -5.2009606,263.40641 14.844464,277.15129 L 28.439751,288.01378 L 47.832162,278.80067 L 72.572935,329.9316 C 103.77784,343.46019 138.48163,352.32361 173.18541,353.02299 L 207.8225,344.77607 L 240.81019,288.69698 L 245.75835,249.11174 L 237.51142,130.35603 L 232.56327,69.328789 L 207.8225,-47.777538 L 95.664324,-26.335534 L -16.493849,138.60295 L -46.182777,123.75849 z"
       id="path2719"
       style="fill:#efcd96;fill-opacity:1;fill-rule:evenodd;stroke:#000000;stroke-width:18;stroke-linecap:round;stroke-linejoin:round;stroke-miterlimit:4;stroke-dasharray:none;stroke-opacity:1"
       sodipodi:nodetypes="ccccccccccccccccc" />
    <path
       d="M -77.52109,69.328789 L -75.871705,132.00541 L -47.832162,232.61789 L -13.195079,234.26728 L 13.195079,217.77343 L 29.688928,229.31912 L 28.039543,138.60295 L 98.963093,21.496627 L 145.14587,9.9509331 L 224.31634,64.380634 L 224.31634,151.79803 L 242.45958,164.99311 L 283.6942,133.6548 L 291.94113,74.276944 L 249.51212,-44.70627 L 209.30126,-73.99707 L 191.32865,-100.55785 L 141.8471,-82.414621 L 82.469244,-102.20724 L 65.975396,-59.323232 L 0,-39.530614 L 1.6493849,-21.38738 L -56.079086,3.3533936 L -41.234622,18.197858 L -77.52109,69.328789 z"
       id="path2721"
       style="opacity:1;fill:#000000;fill-opacity:1;fill-rule:evenodd;stroke:#000000;stroke-width:18;stroke-linecap:round;stroke-linejoin:round;stroke-miterlimit:4;stroke-dasharray:none;stroke-opacity:1" />
    <path
       d="M 654.8058,87.472023 L 592.12917,291.99575 L 573.98594,315.08714 L 600.3761,339.82791 L 631.71441,420.64777 L 661.40334,435.49223 L 691.09227,425.59593 L 692.74165,499.81824 L 603.67487,565.79364 L 488.21793,808.25322 L 545.9464,814.85076 L 823.04306,778.56429 L 849.43322,691.14689 L 843.75246,521.29708 L 796.96394,477.25893 L 790.05536,405.80331 L 851.0826,287.04759 L 654.8058,87.472023 z"
       id="path2723"
       style="fill:#efcd96;fill-opacity:1;fill-rule:evenodd;stroke:#000000;stroke-width:18;stroke-linecap:round;stroke-linejoin:round;stroke-miterlimit:4;stroke-dasharray:none;stroke-opacity:1"
       sodipodi:nodetypes="cccccccccccccccccc" />
    <path
       d="M 631.71441,128.70665 L 696.04042,255.70928 L 780.15905,320.03529 L 852.17014,387.13682 L 905.5123,334.87976 C 905.5123,334.87976 943.44816,257.35867 943.44816,250.76113 C 943.44816,244.16359 933.55185,194.68204 933.55185,194.68204 L 940.14939,161.69434 L 897.26538,118.81034 L 857.68014,49.53617 L 819.74429,33.042322 L 790.05536,39.639861 L 763.6652,26.444782 L 691.09227,44.588016 L 626.76626,99.017717 L 631.71441,128.70665 z"
       id="path2725"
       style="fill:#000000;fill-opacity:1;fill-rule:evenodd;stroke:#000000;stroke-width:18;stroke-linecap:round;stroke-linejoin:round;stroke-miterlimit:4;stroke-dasharray:none;stroke-opacity:1"
       sodipodi:nodetypes="cccccscccccccccc" />
    <path
       d="M -308.43497,107.26464 C -321.76357,114.6101 -328.22759,134.18749 -328.22759,156.74619 C -328.22759,176.25692 -325.57163,189.09108 -313.38313,201.27958 C -302.39531,212.26739 -294.59944,224.02662 -285.34359,230.96851 C -277.35197,236.96222 -262.50822,278.0326 -258.95343,288.69698 C -255.37668,299.42722 -256.57559,313.26601 -260.60281,323.33406 C -261.89422,326.56257 -262.80199,329.9316 -263.90158,333.23037 C -265.00117,336.52914 -266.10076,339.82791 -267.20035,343.12668 C -272.31891,358.48235 -276.59363,374.10226 -280.39543,389.30946 C -280.92881,391.44298 -280.39543,393.70782 -280.39543,395.907"
       id="path2729"
       style="fill:none;fill-rule:evenodd;stroke:#6884f7;stroke-width:12;stroke-linecap:round;stroke-linejoin:round;stroke-miterlimit:4;stroke-dasharray:none;stroke-opacity:1" />
    <path
       d="M -110.50879,-183.0271 C -113.72016,-170.18162 -136.85321,-186.32587 -150.09402,-186.32587 C -165.55587,-186.32587 -237.51142,-203.96127 -237.51142,-171.4814 C -237.51142,-156.90671 -239.16081,-141.7718 -239.16081,-126.94801 C -239.16081,-96.385966 -233.06788,-83.255644 -217.71881,-57.673847 C -204.67656,-35.936767 -188.39128,-12.857864 -173.18541,9.9509331 C -160.71921,28.650237 -170.12709,46.005391 -181.43234,54.484325 C -190.39621,61.207229 -206.07689,68.319913 -219.36819,70.978174"
       id="path2731"
       style="fill:none;fill-rule:evenodd;stroke:#6884f7;stroke-width:12;stroke-linecap:round;stroke-linejoin:round;stroke-miterlimit:4;stroke-dasharray:none;stroke-opacity:1" />
    <path
       d="M 405.74868,-250.65188 C 390.16259,-238.96231 370.92679,-227.37568 352.96837,-209.41726 C 317.76296,-174.21186 411.58326,-122.76282 427.19069,-107.15539 C 449.67684,-84.669237 473.97782,-79.023526 455.23023,-47.777538 C 441.23955,-24.459743 393.54439,-18.08861 367.81283,-18.08861 C 363.41447,-18.08861 359.01611,-18.08861 354.61775,-18.08861"
       id="path2733"
       style="fill:none;fill-rule:evenodd;stroke:#6884f7;stroke-width:12;stroke-linecap:round;stroke-linejoin:round;stroke-miterlimit:4;stroke-dasharray:none;stroke-opacity:1" />
    <path
       d="M 771.91213,-272.09388 C 756.39076,-272.09388 803.82087,-264.92591 814.79613,-253.95065 C 832.76968,-235.97711 839.53691,-224.01516 839.53691,-197.87156 C 839.53691,-149.23322 801.22258,-149.53477 781.80844,-123.64924 C 779.88494,-121.08458 778.50967,-118.15129 776.86028,-115.40232 C 767.19008,-99.285321 779.02311,-95.09626 793.35413,-80.765236 C 802.34372,-71.775646 816.91792,-70.350091 827.99121,-65.920772"
       id="path2735"
       style="fill:none;fill-rule:evenodd;stroke:#6884f7;stroke-width:12;stroke-linecap:round;stroke-linejoin:round;stroke-miterlimit:4;stroke-dasharray:none;stroke-opacity:1" />
    <path
       d="M 1050.6582,-153.33817 C 1067.7342,-136.26219 1103.4385,-172.52956 1103.4385,-107.15539 C 1103.4385,-65.969452 1065.6663,-42.684595 1030.8656,-29.634304 C 1011.6053,-22.411708 1034.8492,17.886845 1044.0606,24.795397 C 1064.6199,40.214879 1090.8533,60.652173 1101.7891,82.523868 C 1111.3924,101.73049 1082.9192,121.30753 1073.7496,132.00541 C 1057.0593,151.47739 1076.3027,130.47351 1065.5026,136.95357"
       id="path2737"
       style="fill:none;fill-rule:evenodd;stroke:#6884f7;stroke-width:12;stroke-linecap:round;stroke-linejoin:round;stroke-miterlimit:4;stroke-dasharray:none;stroke-opacity:1" />
    <path
       style="fill:#ffffff;fill-opacity:1;fill-rule:evenodd;stroke:#000000;stroke-width:18;stroke-linecap:round;stroke-linejoin:round;stroke-miterlimit:4;stroke-dasharray:none;stroke-opacity:1"
       d="M 688.89573,50.71625 L 631.83994,107.77203 L 674.10349,171.16734 L 754.40422,247.24172 L 857.94989,359.2401 L 908.66614,325.42928 L 940.3638,236.67583 L 872.74213,154.26193 L 781.87552,84.527083 L 786.10187,2.1131771 L 798.78093,-38.037187 L 779.76234,-54.942604 L 767.08328,-54.942604 L 752.29104,-16.905417 L 748.06468,14.79224 L 745.95151,40.150364 L 729.04609,-61.282135 L 691.0089,-65.508489 L 686.78255,-42.263541 L 684.66937,-16.905417 L 701.57479,10.565885 L 699.46161,29.584479 L 697.34843,44.376719 L 688.89573,50.71625 z"
       id="path3169"
       sodipodi:nodetypes="cccccccccccccccccccccccc" />
    <path
       style="fill:none;fill-rule:evenodd;stroke:#000000;stroke-width:18;stroke-linecap:round;stroke-linejoin:round;stroke-miterlimit:4;stroke-dasharray:none;stroke-opacity:1"
       d="M 697.34843,116.22474 L 739.61198,177.50687 L 830.47859,270.48667"
       id="path3171" />
    <path
       style="fill:none;fill-rule:evenodd;stroke:#000000;stroke-width:18;stroke-linecap:round;stroke-linejoin:round;stroke-miterlimit:4;stroke-dasharray:none;stroke-opacity:1"
       d="M 718.4802,86.64026 L 781.87552,164.82781 L 857.94989,232.44948"
       id="path3173" />
    <path
       style="fill:none;fill-rule:evenodd;stroke:#000000;stroke-width:18;stroke-linecap:round;stroke-linejoin:round;stroke-miterlimit:4;stroke-dasharray:none;stroke-opacity:1"
       d="M 566.1173,809.56098 L 619.37504,699.24745"
       id="path3175"
       sodipodi:nodetypes="cc" />
    <path
       style="fill:none;fill-rule:evenodd;stroke:#000000;stroke-width:18;stroke-linecap:round;stroke-linejoin:round;stroke-miterlimit:4;stroke-dasharray:none;stroke-opacity:1"
       d="M 796.66776,667.99031 L 762.85692,784.21505"
       id="path3183" />
    <path
       d="M 567.3884,1030.9202 L 560.79086,1075.4536 L 664.70211,1083.7005 L 799.95167,1063.9079 L 830.72814,1032.0294 L 910.46046,1054.0116 L 978.08524,1012.7769 L 1149.6213,915.46324 L 1179.3102,849.48784 L 1124.8805,796.70752 L 1080.3471,801.65568 L 1040.7619,767.0186 L 1004.4754,740.62844 L 841.18629,763.71983 L 783.45782,795.05814 L 755.41828,862.68292 L 659.75396,903.91754 L 606.97364,986.38679 L 567.3884,1030.9202 z"
       id="path2713"
       style="fill:#b3a5a5;fill-opacity:1;fill-rule:evenodd;stroke:#000000;stroke-width:18;stroke-linecap:round;stroke-linejoin:round;stroke-miterlimit:4;stroke-dasharray:none;stroke-opacity:1"
       sodipodi:nodetypes="ccccccccccccccccccc" />
    <path
       style="fill:none;fill-rule:evenodd;stroke:#000000;stroke-width:18;stroke-linecap:round;stroke-linejoin:round;stroke-miterlimit:4;stroke-dasharray:none;stroke-opacity:1"
       d="M 259.92078,500.82297 L 285.2789,553.65239"
       id="path3185" />
    <path
       style="fill:none;fill-rule:evenodd;stroke:#000000;stroke-width:18;stroke-linecap:round;stroke-linejoin:round;stroke-miterlimit:4;stroke-dasharray:none;stroke-opacity:1"
       d="M 747.87234,37.468566 L 759.57447,71.511119 L 774.46809,88.532395 L 784.04255,89.596225"
       id="path3189" />
    <g
       id="g3205"
       transform="translate(-2061.946,-275.25091)">
      <path
         sodipodi:nodetypes="cs"
         id="path3191"
         d="M 2147.5054,501.16543 C 2158.9842,507.01189 2175.6375,501.64684 2178.0609,492.8321"
         style="fill:none;fill-rule:evenodd;stroke:#000000;stroke-width:18;stroke-linecap:round;stroke-linejoin:round;stroke-miterlimit:4;stroke-dasharray:none;stroke-opacity:1" />
      <path
         sodipodi:nodetypes="cz"
         id="path3193"
         d="M 2246.1165,474.77654 C 2260.5186,478.73939 2271.4709,472.78438 2272.5054,459.49876"
         style="fill:none;fill-rule:evenodd;stroke:#000000;stroke-width:18;stroke-linecap:round;stroke-linejoin:round;stroke-miterlimit:4;stroke-dasharray:none;stroke-opacity:1" />
      <path
         sodipodi:nodetypes="csc"
         id="path3197"
         d="M 2223.8943,495.60987 C 2223.8943,495.60987 2252.259,512.4282 2253.0609,524.77654 C 2253.5038,531.59602 2239.172,542.8321 2239.172,542.8321"
         style="fill:none;fill-rule:evenodd;stroke:#000000;stroke-width:18;stroke-linecap:round;stroke-linejoin:round;stroke-miterlimit:4;stroke-dasharray:none;stroke-opacity:1" />
      <path
         sodipodi:nodetypes="cc"
         id="path3199"
         d="M 2210.0054,587.27654 C 2232.6906,606.25802 2255.3757,590.51728 2253.0609,573.38765"
         style="fill:none;fill-rule:evenodd;stroke:#000000;stroke-width:18;stroke-linecap:round;stroke-linejoin:round;stroke-miterlimit:4;stroke-dasharray:none;stroke-opacity:1" />
      <path
         sodipodi:nodetypes="cz"
         id="path3201"
         d="M 2108.6165,444.22099 C 2121.307,406.50176 2127.0981,408.454 2154.4498,416.44321"
         style="fill:none;fill-rule:evenodd;stroke:#000000;stroke-width:25;stroke-linecap:round;stroke-linejoin:round;stroke-miterlimit:4;stroke-dasharray:none;stroke-opacity:1" />
      <path
         sodipodi:nodetypes="cz"
         id="path3203"
         d="M 2239.172,395.60987 C 2253.9868,369.41966 2265.7832,375.13911 2283.6165,381.72099"
         style="fill:none;fill-rule:evenodd;stroke:#000000;stroke-width:25;stroke-linecap:round;stroke-linejoin:round;stroke-miterlimit:4;stroke-dasharray:none;stroke-opacity:1" />
    </g>
    <path
       style="fill:none;fill-rule:evenodd;stroke:#000000;stroke-width:18;stroke-linecap:round;stroke-linejoin:round;stroke-miterlimit:4;stroke-dasharray:none;stroke-opacity:1"
       d="M 618.70559,389.81131 C 628.85496,386.96949 645.09395,384.12766 652.80747,371.54244"
       id="path3213"
       sodipodi:nodetypes="cc" />
    <path
       style="fill:none;fill-rule:evenodd;stroke:#000000;stroke-width:18;stroke-linecap:round;stroke-linejoin:round;stroke-miterlimit:4;stroke-dasharray:none;stroke-opacity:1"
       d="M 634.53861,249.75 L 622.35937,278.98019"
       id="path3215"
       sodipodi:nodetypes="cc" />
    <path
       style="fill:none;fill-rule:evenodd;stroke:#000000;stroke-width:18;stroke-linecap:round;stroke-linejoin:round;stroke-miterlimit:4;stroke-dasharray:none;stroke-opacity:1"
       d="M 618.70559,221.73775 C 628.04301,216.86605 651.99552,210.77643 656.46124,229.04529"
       id="path3217"
       sodipodi:nodetypes="cz" />
    <path
       style="fill:none;fill-rule:evenodd;stroke:#000000;stroke-width:12;stroke-linecap:round;stroke-linejoin:round;stroke-miterlimit:4;stroke-dasharray:none;stroke-opacity:1"
       d="M 357.36673,521.81004 C 372.03705,543.72187 373.506,558.25586 360.1157,585.03646 C 355.42533,594.41721 331.71146,596.94685 324.37903,604.27929 C 315.86635,612.79196 330.34629,639.54665 318.88108,651.01186 C 308.93848,660.95445 284.68175,664.75673 266.65056,664.75673 C 247.40773,664.75673 228.16491,664.75673 208.92209,664.75673 C 189.58295,664.75673 173.33143,670.25468 153.94259,670.25468"
       id="path3219" />
    <path
       style="fill:none;fill-rule:evenodd;stroke:#000000;stroke-width:12;stroke-linecap:round;stroke-linejoin:round;stroke-miterlimit:4;stroke-dasharray:none;stroke-opacity:1"
       d="M 398.60135,560.29569 C 379.27145,560.29569 396.8943,599.06964 393.1034,618.02416 C 390.31805,631.95091 362.86468,616.73502 362.86468,640.01596 C 362.86468,653.95667 368.36263,665.65192 368.36263,681.25058 C 368.36263,691.70753 337.24582,703.2137 329.87698,708.74033 C 318.36932,717.37107 289.63844,716.05099 274.89748,719.73623 C 273.64029,720.05053 273.06483,721.56888 272.14851,722.4852"
       id="path3221" />
    <path
       style="fill:none;fill-rule:evenodd;stroke:#000000;stroke-width:12;stroke-linecap:round;stroke-linejoin:round;stroke-miterlimit:4;stroke-dasharray:none;stroke-opacity:1"
       d="M 483.81957,590.53441 C 466.8359,594.78033 493.56343,625.78127 489.31752,642.76494 C 486.1889,655.2794 467.63041,656.40825 459.07879,659.25878"
       id="path3223" />
    <path
       style="fill:none;fill-rule:evenodd;stroke:#000000;stroke-width:12;stroke-linecap:round;stroke-linejoin:round;stroke-miterlimit:4;stroke-dasharray:none;stroke-opacity:1"
       d="M 417.84417,703.24238 C 415.17575,713.91605 381.11112,743.57669 349.1198,749.97495 C 311.92527,757.41386 283.97806,771.96675 244.65876,771.96675 C 232.74653,771.96675 220.83431,771.96675 208.92209,771.96675"
       id="path3225" />
    <path
       style="fill:none;fill-rule:evenodd;stroke:#000000;stroke-width:12;stroke-linecap:round;stroke-linejoin:round;stroke-miterlimit:4;stroke-dasharray:none;stroke-opacity:1"
       d="M 448.08289,744.477 C 431.15145,744.477 398.60135,767.27366 398.60135,796.70752 C 398.60135,813.32404 413.64404,835.03983 420.59315,848.93805 C 427.28309,862.31793 475.19057,869.64255 489.31752,873.67882 C 506.18275,878.49746 532.60031,872.98886 549.79496,876.42779"
       id="path3227" />
    <path
       style="fill:none;fill-rule:evenodd;stroke:#000000;stroke-width:12;stroke-linecap:round;stroke-linejoin:round;stroke-miterlimit:4;stroke-dasharray:none;stroke-opacity:1"
       d="M 879.67194,620.77314 C 894.50164,625.01019 907.16169,636.01707 907.16169,662.00776 C 907.16169,689.0682 901.6347,689.43942 915.40861,716.98726"
       id="path3229" />
    <path
       style="fill:none;fill-rule:evenodd;stroke:#000000;stroke-width:12;stroke-linecap:round;stroke-linejoin:round;stroke-miterlimit:4;stroke-dasharray:none;stroke-opacity:1"
       d="M 951.14529,634.51801 C 951.14529,653.0522 989.90417,646.2053 975.88606,681.25058 C 969.76078,696.56379 980.09618,695.11101 984.13298,700.49341"
       id="path3231" />
  </g>
</svg>
