<?xml version="1.0" encoding="UTF-8" standalone="no"?>
<!-- Created with Inkscape (http://www.inkscape.org/) -->

<svg
   xmlns:dc="http://purl.org/dc/elements/1.1/"
   xmlns:cc="http://creativecommons.org/ns#"
   xmlns:rdf="http://www.w3.org/1999/02/22-rdf-syntax-ns#"
   xmlns:svg="http://www.w3.org/2000/svg"
   xmlns="http://www.w3.org/2000/svg"
   xmlns:xlink="http://www.w3.org/1999/xlink"
   xmlns:sodipodi="http://sodipodi.sourceforge.net/DTD/sodipodi-0.dtd"
   xmlns:inkscape="http://www.inkscape.org/namespaces/inkscape"
   id="svg7987"
   sodipodi:docname="shinkansen.svg"
   viewBox="0 0 368.98 121.5"
   version="1.1"
   inkscape:version="0.92.4 5da689c313, 2019-01-14">
  <title
     id="title10652">Shinkansen N700 Front</title>
  <defs
     id="defs7989">
    <linearGradient
       id="linearGradient9241"
       inkscape:collect="always">
      <stop
         id="stop9243"
         style="stop-color:#666666"
         offset="0" />
      <stop
         id="stop9245"
         style="stop-color:#808080"
         offset="1" />
    </linearGradient>
    <linearGradient
       id="linearGradient9145">
      <stop
         id="stop9147"
         style="stop-color:#808080"
         offset="0" />
      <stop
         id="stop9153"
         style="stop-color:#4d4d4d"
         offset=".40942" />
      <stop
         id="stop9149"
         style="stop-color:#4d4d4d"
         offset="1" />
    </linearGradient>
    <filter
       id="filter9364"
       inkscape:collect="always"
       color-interpolation-filters="sRGB">
      <feGaussianBlur
         id="feGaussianBlur9366"
         stdDeviation="0.61783246"
         inkscape:collect="always" />
    </filter>
    <filter
       id="filter9372"
       inkscape:collect="always"
       color-interpolation-filters="sRGB">
      <feGaussianBlur
         id="feGaussianBlur9374"
         stdDeviation="0.81902892"
         inkscape:collect="always" />
    </filter>
    <filter
       id="filter9384"
       inkscape:collect="always"
       color-interpolation-filters="sRGB">
      <feGaussianBlur
         id="feGaussianBlur9386"
         stdDeviation="0.49588754"
         inkscape:collect="always" />
    </filter>
    <filter
       id="filter9398"
       height="1.4573"
       width="1.0536"
       color-interpolation-filters="sRGB"
       y="-.22865"
       x="-.026815"
       inkscape:collect="always">
      <feGaussianBlur
         id="feGaussianBlur9400"
         stdDeviation="3.6006591"
         inkscape:collect="always" />
    </filter>
    <filter
       id="filter9404"
       inkscape:collect="always"
       color-interpolation-filters="sRGB">
      <feGaussianBlur
         id="feGaussianBlur9406"
         stdDeviation="0.18701048"
         inkscape:collect="always" />
    </filter>
    <filter
       id="filter9415"
       inkscape:collect="always"
       color-interpolation-filters="sRGB">
      <feGaussianBlur
         id="feGaussianBlur9417"
         stdDeviation="0.5711535"
         inkscape:collect="always" />
    </filter>
    <filter
       id="filter9442"
       height="1.2992"
       width="1.0695"
       color-interpolation-filters="sRGB"
       y="-.14959"
       x="-.034751"
       inkscape:collect="always">
      <feGaussianBlur
         id="feGaussianBlur9444"
         stdDeviation="0.66234229"
         inkscape:collect="always" />
    </filter>
    <linearGradient
       id="linearGradient10610"
       y2="392.11"
       gradientUnits="userSpaceOnUse"
       x2="405.66"
       y1="431.62"
       x1="130.05"
       inkscape:collect="always">
      <stop
         id="stop9318"
         style="stop-color:#cccccc"
         offset="0" />
      <stop
         id="stop9330"
         style="stop-color:#e6e6e6"
         offset=".086639" />
      <stop
         id="stop9320"
         style="stop-color:#e6e6e6"
         offset=".47274" />
      <stop
         id="stop9322"
         style="stop-color:#e6e6e6"
         offset=".74345" />
      <stop
         id="stop9324"
         style="stop-color:#f2f2f2"
         offset=".83118" />
      <stop
         id="stop9326"
         style="stop-color:#e6e6e6"
         offset=".89984" />
      <stop
         id="stop9328"
         style="stop-color:#b3b3b3"
         offset="1" />
    </linearGradient>
    <linearGradient
       id="linearGradient10612"
       y2="391.79"
       gradientUnits="userSpaceOnUse"
       x2="166.36"
       y1="398.86"
       x1="121.8"
       inkscape:collect="always">
      <stop
         id="stop8900"
         style="stop-color:#e6e6e6"
         offset="0" />
      <stop
         id="stop8902"
         style="stop-color:#cccccc;stop-opacity:0"
         offset="1" />
    </linearGradient>
    <linearGradient
       id="linearGradient10614"
       y2="340.03"
       gradientUnits="userSpaceOnUse"
       x2="398.61"
       y1="388.57"
       x1="145.09"
       inkscape:collect="always">
      <stop
         id="stop9025"
         style="stop-color:#ffffff"
         offset="0" />
      <stop
         id="stop9043"
         style="stop-color:#ececec"
         offset=".050096" />
      <stop
         id="stop9041"
         style="stop-color:#cccccc"
         offset=".41996" />
      <stop
         id="stop9039"
         style="stop-color:#e6e6e6"
         offset=".56993" />
      <stop
         id="stop9037"
         style="stop-color:#cccccc"
         offset=".71221" />
      <stop
         id="stop9027"
         style="stop-color:#e6e6e6"
         offset="1" />
    </linearGradient>
    <linearGradient
       id="linearGradient10616"
       y2="381.77"
       gradientUnits="userSpaceOnUse"
       x2="183.56"
       y1="372.57"
       x1="482.43"
       inkscape:collect="always">
      <stop
         id="stop9340"
         style="stop-color:#e6e6e6"
         offset="0" />
      <stop
         id="stop9350"
         style="stop-color:#e6e6e6"
         offset=".12938" />
      <stop
         id="stop9342"
         style="stop-color:#ececec"
         offset="0.299" />
      <stop
         id="stop9344"
         style="stop-color:#e6e6e6"
         offset=".52766" />
      <stop
         id="stop9346"
         style="stop-color:#cccccc"
         offset=".65087" />
      <stop
         id="stop9348"
         style="stop-color:#cccccc"
         offset="1" />
    </linearGradient>
    <linearGradient
       id="linearGradient10618"
       y2="473.56"
       gradientUnits="userSpaceOnUse"
       x2="217.23"
       y1="392.3"
       x1="211.58"
       inkscape:collect="always">
      <stop
         id="stop9089"
         style="stop-color:#cccccc"
         offset="0" />
      <stop
         id="stop9396"
         style="stop-color:#f2f2f2"
         offset=".097548" />
      <stop
         id="stop9099"
         style="stop-color:#b3b3b3"
         offset=".41803" />
      <stop
         id="stop9091"
         style="stop-color:#e6e6e6"
         offset=".63884" />
      <stop
         id="stop9095"
         style="stop-color:#f2f2f2"
         offset=".67890" />
      <stop
         id="stop9097"
         style="stop-color:#b3b3b3"
         offset="1" />
    </linearGradient>
    <linearGradient
       id="linearGradient10620"
       y2="505.56"
       gradientUnits="userSpaceOnUse"
       x2="271.63"
       y1="425.63"
       x1="260.32"
       inkscape:collect="always">
      <stop
         id="stop9274"
         style="stop-color:#4d4d4d"
         offset="0" />
      <stop
         id="stop9276"
         style="stop-color:#b3b3b3"
         offset=".33917" />
      <stop
         id="stop9278"
         style="stop-color:#e6e6e6"
         offset=".63884" />
      <stop
         id="stop9280"
         style="stop-color:#e6e6e6"
         offset=".65297" />
      <stop
         id="stop9282"
         style="stop-color:#f2f2f2"
         offset=".83140" />
      <stop
         id="stop9284"
         style="stop-color:#4d4d4d"
         offset="1" />
    </linearGradient>
    <linearGradient
       id="linearGradient10622"
       y2="372.47"
       gradientUnits="userSpaceOnUse"
       x2="472.98"
       y1="373.22"
       x1="480.09"
       inkscape:collect="always">
      <stop
         id="stop9185"
         style="stop-color:#808080"
         offset="0" />
      <stop
         id="stop9187"
         style="stop-color:#4d4d4d"
         offset=".42695" />
      <stop
         id="stop9189"
         style="stop-color:#4d4d4d"
         offset="1" />
    </linearGradient>
    <linearGradient
       id="linearGradient10624"
       y2="372.69"
       gradientUnits="userSpaceOnUse"
       x2="463.06"
       y1="373.69"
       x1="470.67"
       inkscape:collect="always">
      <stop
         id="stop9177"
         style="stop-color:#808080"
         offset="0" />
      <stop
         id="stop9179"
         style="stop-color:#4d4d4d"
         offset=".32502" />
      <stop
         id="stop9181"
         style="stop-color:#4d4d4d"
         offset="1" />
    </linearGradient>
    <linearGradient
       id="linearGradient10626"
       y2="371.98"
       xlink:href="#linearGradient9145"
       gradientUnits="userSpaceOnUse"
       x2="453.41"
       y1="373.23"
       x1="462.34"
       inkscape:collect="always" />
    <linearGradient
       id="linearGradient10628"
       y2="370"
       xlink:href="#linearGradient9145"
       gradientUnits="userSpaceOnUse"
       x2="441.38"
       y1="371.5"
       x1="452.24"
       inkscape:collect="always" />
    <linearGradient
       id="linearGradient10630"
       y2="370.92"
       xlink:href="#linearGradient9145"
       gradientUnits="userSpaceOnUse"
       x2="430.09"
       y1="372.17"
       x1="440.25"
       inkscape:collect="always" />
    <linearGradient
       id="linearGradient10632"
       y2="371.6"
       xlink:href="#linearGradient9145"
       gradientUnits="userSpaceOnUse"
       x2="418.16"
       y1="373.1"
       x1="427.16"
       inkscape:collect="always" />
    <linearGradient
       id="linearGradient10634"
       y2="371.6"
       xlink:href="#linearGradient9145"
       gradientUnits="userSpaceOnUse"
       x2="418.16"
       gradientTransform="matrix(0.86433,-0.045651,0.011098,1.1257,32.807,-37.174)"
       y1="373.1"
       x1="427.16"
       inkscape:collect="always" />
    <linearGradient
       id="linearGradient10636"
       y2="371.6"
       xlink:href="#linearGradient9145"
       gradientUnits="userSpaceOnUse"
       x2="418.16"
       gradientTransform="matrix(0.68643,-0.045651,0.0088137,1.1257,91.625,-33.637)"
       y1="373.1"
       x1="427.16"
       inkscape:collect="always" />
    <linearGradient
       id="linearGradient10638"
       y2="385"
       xlink:href="#linearGradient9241"
       gradientUnits="userSpaceOnUse"
       x2="411.15"
       y1="331.44"
       x1="415.27"
       inkscape:collect="always" />
    <linearGradient
       id="linearGradient10640"
       y2="385"
       xlink:href="#linearGradient9241"
       gradientUnits="userSpaceOnUse"
       x2="411.15"
       gradientTransform="matrix(0.75888,0.032854,-0.024946,0.99946,79.628,2.6527)"
       y1="331.44"
       x1="415.27"
       inkscape:collect="always" />
    <linearGradient
       id="linearGradient10642"
       y2="354.09"
       gradientUnits="userSpaceOnUse"
       x2="431.68"
       y1="353.83"
       x1="421.51"
       inkscape:collect="always">
      <stop
         id="stop9497"
         style="stop-color:#000000"
         offset="0" />
      <stop
         id="stop9501"
         style="stop-color:#262626"
         offset=".78676" />
      <stop
         id="stop9499"
         style="stop-color:#4d4d4d"
         offset="1" />
    </linearGradient>
    <linearGradient
       id="linearGradient10644"
       y2="353.83"
       gradientUnits="userSpaceOnUse"
       x2="420.36"
       y1="353.74"
       x1="425.05"
       inkscape:collect="always">
      <stop
         id="stop9487"
         style="stop-color:#ffcc00"
         offset="0" />
      <stop
         id="stop9489"
         style="stop-color:#806600"
         offset="1" />
    </linearGradient>
    <linearGradient
       id="linearGradient10646"
       y2="405.36"
       gradientUnits="userSpaceOnUse"
       x2="191.75"
       y1="398.68"
       x1="189.02"
       inkscape:collect="always">
      <stop
         id="stop9454"
         style="stop-color:#ffdd55"
         offset="0" />
      <stop
         id="stop9460"
         style="stop-color:#d4aa00"
         offset=".57730" />
      <stop
         id="stop9456"
         style="stop-color:#ffdd55"
         offset="1" />
    </linearGradient>
    <linearGradient
       id="linearGradient10648"
       y2="365.78"
       gradientUnits="userSpaceOnUse"
       x2="290.94"
       y1="346.05"
       x1="280.48"
       inkscape:collect="always">
      <stop
         id="stop8933"
         style="stop-color:#4d4d4d"
         offset="0" />
      <stop
         id="stop8953"
         style="stop-color:#000000"
         offset=".37783" />
      <stop
         id="stop8951"
         style="stop-color:#666666"
         offset=".46750" />
      <stop
         id="stop8949"
         style="stop-color:#000000"
         offset=".54516" />
      <stop
         id="stop8935"
         style="stop-color:#333333"
         offset="1" />
    </linearGradient>
    <linearGradient
       id="linearGradient10650"
       y2="394.44"
       gradientUnits="userSpaceOnUse"
       x2="476.01"
       y1="390.9"
       x1="447.59"
       inkscape:collect="always">
      <stop
         id="stop9549"
         style="stop-color:#b3b3b3"
         offset="0" />
      <stop
         id="stop9551"
         style="stop-color:#868686;stop-opacity:0"
         offset="1" />
    </linearGradient>
  </defs>
  <sodipodi:namedview
     id="base"
     bordercolor="#666666"
     inkscape:pageshadow="2"
     inkscape:window-y="24"
     fit-margin-left="0"
     pagecolor="#ffffff"
     inkscape:window-height="1382"
     inkscape:window-maximized="0"
     inkscape:zoom="1.4136719"
     inkscape:window-x="1280"
     showgrid="false"
     borderopacity="1.0"
     inkscape:current-layer="layer10"
     inkscape:cx="173.43543"
     inkscape:cy="43.750028"
     fit-margin-top="0"
     fit-margin-right="0"
     fit-margin-bottom="0"
     inkscape:window-width="1272"
     inkscape:pageopacity="0.0"
     inkscape:document-units="px" />
  <g
     id="layer10"
     inkscape:label="Layer 1"
     inkscape:groupmode="layer"
     transform="translate(-121.1,-332.58)">
    <path
       style="opacity:1;fill:#ffffff;fill-opacity:1;fill-rule:nonzero;stroke:#ffffff;stroke-width:56.42287064;stroke-linecap:round;stroke-linejoin:round;stroke-miterlimit:4;stroke-dasharray:none;stroke-dashoffset:0;stroke-opacity:1;paint-order:normal"
       id="path1113"
       sodipodi:type="arc"
       sodipodi:cx="370.12173"
       sodipodi:cy="354.73892"
       sodipodi:rx="140.16669"
       sodipodi:ry="8.8786478"
       sodipodi:start="5.6145993"
       sodipodi:end="5.6031859"
       sodipodi:open="true"
       d="m 480.11039,349.23525 a 140.16669,8.8786478 0 0 1 -22.78906,12.45501 140.16669,8.8786478 0 0 1 -196.69063,-1.408 140.16669,8.8786478 0 0 1 21.66661,-12.46304 140.16669,8.8786478 0 0 1 196.81427,1.33687"
       transform="matrix(0.99110847,0.13305641,-0.15919439,0.98724726,0,0)" />
    <g
       id="g10581"
       transform="matrix(-1,0,0,1,611.31109,0)">
      <path
         id="path8076"
         d="m 122.02,410.42 c 3.1493,-36.956 110.55,-45.659 127.33,-51.639 16.777,-5.9797 44.254,-18.842 44.512,-18.689 0.25742,0.15341 8.651,-3.0478 14.756,-4.0015 6.1046,-0.95375 52.961,-3.6631 79.28,-1.2505 31.706,2.9063 101.04,14.506 101.04,14.506 l -12.005,52.52 c -0.0767,0.0748 -321.31,26.592 -321.31,26.592 l -29.002,-9.1959 z"
         sodipodi:nodetypes="czszsccccc"
         style="fill:#ffffff"
         inkscape:connector-curvature="0" />
      <path
         id="path9409"
         d="m 488.33,351.2 c 0,0 -88.994,-9.722 -94.51,-8.1045 -15.311,7.3583 -15.46,7.7852 -14.871,7.497 -21.131,-6.2754 -36.273,10.181 -58.057,8.6253 l -20.036,-1.9652 -15.34,-11.79 6.2775,-4.0193 c 0,0 12.285,-10.962 102.22,-6.3664 10.534,1.4412 73.442,10.599 94.701,14.395 z"
         sodipodi:nodetypes="cccccccccc"
         style="fill:#e6e6e6;filter:url(#filter9415)"
         inkscape:connector-curvature="0" />
      <path
         id="path8906"
         d="m 127.05,418.62 c 0,0 17.846,-37.451 72.528,-38.515 54.682,-1.0635 106.93,-1.328 144.56,-0.50019 37.627,0.82782 61.963,12.651 61.963,12.651 l -89.474,3.855 c -154.01,6.6355 -156.99,32.981 -161.56,31.512 z"
         sodipodi:nodetypes="czzcssc"
         style="fill:url(#linearGradient10610);filter:url(#filter9372)"
         inkscape:connector-curvature="0" />
      <path
         id="path8856"
         d="m 127.55,418.12 c 8.9068,-19.624 33.263,-35.013 33.263,-35.013 -2.9334,0.13669 -31.39,0.22294 -39.265,27.01 -0.0927,-0.10658 4.6241,11.04 6.0023,8.0031 z"
         sodipodi:nodetypes="sscs"
         style="fill:url(#linearGradient10612);filter:url(#filter9404)"
         inkscape:connector-curvature="0" />
      <path
         id="path8975"
         d="m 379.93,350.26 c 0.30747,0.0541 -4.5016,-5.0475 -14.276,-5.0479 -9.7746,-3.5e-4 -8.2442,1.3378 -12.318,2.2435 -13.567,3.0158 -26.795,9.4974 -40.321,10.611 -9.9641,0.82014 -48.254,-5.3159 -52.275,-3.4148 -12.86,6.0796 -32.928,8.7911 -50.88,12.118 -18.068,3.3489 -35.196,7.1016 -45.66,11.055 -2.3216,1.3401 -6.7162,10.331 -4.122,9.6563 31.023,-8.0728 30.861,-7.6558 67.36,-13.778 85.576,-0.9458 141.7,-17.038 152.49,-23.444 z"
         sodipodi:nodetypes="czassscscc"
         style="fill:url(#linearGradient10614);filter:url(#filter9384)"
         inkscape:connector-curvature="0" />
      <path
         id="path9049"
         d="m 183.55,381.44 c 0,0 40.528,-12.241 108.88,-12.457 49.527,-0.15488 83.478,-13.254 105.19,-24.399 29.174,2.58 59.559,5.5383 90.126,8.5351 l -8.1348,38.906 -72.585,1.4148 c -24.86,-14.41 -79.4,-15.03 -125.96,-13.8 -52.21,1.3703 -97.522,1.8029 -97.522,1.8029 z"
         sodipodi:nodetypes="ccccccsc"
         style="fill:url(#linearGradient10616);filter:url(#filter9364)"
         inkscape:connector-curvature="0" />
      <path
         id="path9064"
         d="m 478.54,392.03 -1.6219,9.5496 c 0,0 -275.97,35.435 -320.65,26.923 11.965,-18.053 86.773,-33.41 249.77,-36.119 24.166,-0.40173 72.506,-0.35369 72.506,-0.35369 z"
         sodipodi:nodetypes="cccsc"
         style="fill:url(#linearGradient10618);filter:url(#filter9398)"
         inkscape:connector-curvature="0" />
      <path
         id="path9252"
         d="m 122.3,410.37 c 0,0 -3.3019,28.02 38.278,38.603 98.894,20.399 313.72,-33.424 313.72,-33.424 l 2.6848,-13.579 c 0,0 -262.25,34.456 -319.92,26.156 l -29.511,-10.504 z"
         sodipodi:nodetypes="ccccccc"
         style="fill:url(#linearGradient10620)"
         inkscape:connector-curvature="0" />
      <path
         id="path9103"
         d="m 345.66,379.26 136.42,-0.67703 -1.02,4.8891 -89.348,2.1846 c -10.498,-2.4766 -32.278,-6.6118 -46.053,-6.3967 z"
         sodipodi:nodetypes="ccccc"
         style="fill:#000080"
         inkscape:connector-curvature="0" />
      <path
         id="path9112"
         d="m 398.02,387.68 82.666,-2.5742 -0.37513,2.0008 -78.155,2.501 c -1.0199,-0.76409 -1.6904,-1.0004 -4.1355,-1.9275 z"
         sodipodi:nodetypes="ccccc"
         style="fill:#000080"
         inkscape:connector-curvature="0" />
      <path
         id="path9143"
         d="m 476.27,366.6 0.80722,0.0833 c 0.91551,0.0945 1.644,1.1894 1.5234,2.4382 l -0.63952,6.6249 c -0.12286,1.2486 -0.86614,2.1912 -1.7816,2.0966 l -0.80721,-0.0833 c -0.9155,-0.0946 -1.644,-1.1894 -1.5234,-2.4382 l 0.63954,-6.6249 c 0.12056,-1.2489 0.86613,-2.1912 1.7816,-2.0966 z"
         style="fill:url(#linearGradient10622)"
         inkscape:connector-curvature="0" />
      <path
         id="path9141"
         d="m 467.42,366 0.91177,0.0844 c 1.0341,0.0957 1.8694,1.2051 1.7208,2.4677 l -0.84741,7.1986 c -0.13877,1.2637 -0.97832,2.2177 -2.0124,2.1219 l -0.91176,-0.0844 c -1.0341,-0.0958 -1.8694,-1.2051 -1.7208,-2.4677 l 0.84742,-7.1986 c 0.14864,-1.2626 0.97831,-2.2177 2.0124,-2.122 z"
         style="fill:url(#linearGradient10624)"
         inkscape:connector-curvature="0" />
      <path
         id="path9139"
         d="m 457.87,365.38 1.0915,0.087 c 1.2379,0.0987 2.2078,1.2394 2.06,2.5446 l -0.86476,7.6336 c -0.16611,1.3031 -1.1712,2.2868 -2.4091,2.1881 l -1.0915,-0.087 c -1.2379,-0.0988 -2.2078,-1.2394 -2.06,-2.5446 l 0.86477,-7.6336 c 0.16609,-1.3031 1.1712,-2.2869 2.4091,-2.1881 z"
         style="fill:url(#linearGradient10626)"
         inkscape:connector-curvature="0" />
      <path
         id="path9137"
         d="m 447,364.69 1.1664,0.0938 c 1.3229,0.10639 2.3653,1.3359 2.2013,2.7414 l -0.9241,7.921 c -0.1775,1.4039 -1.2515,2.4637 -2.5744,2.3573 l -1.1664,-0.0938 c -1.3229,-0.1064 -2.3653,-1.3359 -2.2013,-2.7414 l 0.9241,-7.921 c 0.17749,-1.4039 1.2515,-2.4637 2.5744,-2.3573 z"
         style="fill:url(#linearGradient10628)"
         inkscape:connector-curvature="0" />
      <path
         id="path9135"
         d="m 435.62,364.03 1.2859,0.0945 c 1.4584,0.10716 2.5955,1.344 2.4268,2.7612 l -1.0188,8.5603 c -0.19568,1.4141 -1.3797,2.4815 -2.8381,2.3743 l -1.2859,-0.0945 c -1.4584,-0.10718 -2.5955,-1.344 -2.4268,-2.7613 l 1.0188,-8.5603 c 0.19567,-1.4141 1.3797,-2.4815 2.8381,-2.3743 z"
         style="fill:url(#linearGradient10630)"
         inkscape:connector-curvature="0" />
      <path
         id="path9126"
         d="m 423.42,363.09 1.3456,0.10136 c 1.5262,0.11496 2.7372,1.444 2.5396,2.9617 l -1.1911,9.1481 c -0.20477,1.5167 -1.4438,2.6616 -2.97,2.5467 l -1.3456,-0.10136 c -1.5262,-0.11496 -2.7372,-1.444 -2.5396,-2.9617 l 1.1911,-9.1481 c 0.20477,-1.5167 1.4438,-2.6616 2.97,-2.5467 z"
         style="fill:url(#linearGradient10632)"
         inkscape:connector-curvature="0" />
      <path
         id="path9191"
         style="fill:url(#linearGradient10634)"
         inkscape:connector-curvature="0"
         d="m 402.81,352.22 1.1642,0.053 c 1.3204,0.06 2.3819,1.5005 2.2279,3.218 l -0.92802,10.352 c -0.16014,1.7167 -1.2184,3.062 -2.5388,3.0023 l -1.1642,-0.053 c -1.3204,-0.06 -2.3819,-1.5005 -2.2279,-3.2179 l 0.92802,-10.352 c 0.16014,-1.7167 1.2184,-3.062 2.5388,-3.0023 z" />
      <path
         id="path9199"
         style="fill:url(#linearGradient10636)"
         inkscape:connector-curvature="0"
         d="m 385.47,355.75 0.92456,0.053 c 1.0486,0.06 1.8916,1.5005 1.7694,3.218 l -0.73702,10.352 c -0.12718,1.7167 -0.96763,3.062 -2.0162,3.0023 l -0.92456,-0.053 c -1.0486,-0.06 -1.8916,-1.5005 -1.7694,-3.2179 l 0.73701,-10.352 c 0.12718,-1.7167 0.96764,-3.062 2.0162,-3.0023 z" />
      <path
         id="rect9203"
         style="fill:none;stroke:url(#linearGradient10638);stroke-width:0.5"
         d="m 411.97,335.78 h 5.7292 c 1.5305,0 2.8553,1.2349 2.7626,2.7626 l -2.7302,44.978 c -0.0927,1.5276 -2.8887,1.6166 -2.8887,1.6166 l -5.3611,0.4303 c 0,0 -3.074,0.18778 -2.9812,-1.3399 0.37353,-2.0216 0.99889,-7.1478 0.4422,-10.554 0.76453,-12.595 1.6068,-24.291 2.2648,-35.13 0.0927,-1.5276 1.2321,-2.7626 2.7626,-2.7626 z"
         sodipodi:nodetypes="cssscccccsc"
         inkscape:connector-curvature="0"
         transform="rotate(1.8827)" />
      <path
         id="path9466"
         sodipodi:nodetypes="csccscccccsc"
         style="fill:none;stroke:url(#linearGradient10640);stroke-width:0.43568999"
         inkscape:connector-curvature="0"
         d="m 383.89,351.79 4.3478,0.18823 c 1.1614,0.0503 2.1374,1.3282 2.0276,2.8518 -0.82149,11.397 -1.8593,24.794 -2.2628,30.393 0.9809,6.6807 -0.75428,11.465 -0.75428,11.465 -0.10982,1.5237 -2.2325,1.5208 -2.2325,1.5208 l -4.0792,0.25393 c 0,0 -2.3375,0.0867 -2.229,-1.4371 -0.0842,0.10507 1.8206,-6.1448 0.77571,-13.635 0.89438,-12.563 1.4716,-18.117 2.2414,-28.93 0.10846,-1.5238 1.0039,-2.7206 2.1654,-2.6703 z" />
      <g
         id="g9503"
         transform="matrix(1,0.034904,0,1,0,-14.89)">
        <path
           id="rect9470"
           sodipodi:nodetypes="sssssssss"
           style="opacity:0.98000004;fill:url(#linearGradient10642)"
           inkscape:connector-curvature="0"
           d="m 423.05,350.84 7.3548,0.2501 c 0.69875,0.0238 1.2902,0.56342 1.262,1.262 l -0.12505,3.1032 c -0.0281,0.69858 -0.56296,1.2737 -1.262,1.262 l -7.4798,-0.12505 c -0.69906,-0.0117 -1.316,-0.56494 -1.262,-1.262 l 0.2501,-3.2282 c 0.054,-0.69706 0.68823,-1.2815 1.262,-1.262 z" />
        <path
           id="path9480"
           sodipodi:nodetypes="ccccccc"
           style="opacity:0.98000004;fill:url(#linearGradient10644)"
           inkscape:connector-curvature="0"
           d="m 423.41,351.29 c -0.57231,-0.0195 -1.0603,0.0224 -1.1669,0.71947 l -0.23473,3.25 c -0.10661,0.69706 0.45807,0.97303 1.1562,0.98473 l 1.2713,-0.0572 0.31783,-4.8658 z" />
      </g>
      <path
         id="path9464"
         sodipodi:nodetypes="cczc"
         style="opacity:0.43498003;fill:url(#linearGradient10646)"
         inkscape:connector-curvature="0"
         d="m 205.93,396.89 3.7226,7.1167 c 0,0 -34.905,4.9268 -35.415,0.0141 -0.51033,-4.9127 28.008,-6.1746 31.693,-7.1308 z" />
      <path
         id="path8929"
         d="m 257.92,355.56 c 0,0 60.484,8.4621 70.704,-2.4706 3.4157,-3.654 -0.92975,-10.685 -8.6498,-10.767 -2.7496,-0.0292 -7.2176,0.67915 -10.833,0.58601 -5.7681,-0.14862 -17.214,-1.8239 -17.214,-1.8239 z"
         sodipodi:nodetypes="cssacc"
         style="fill:url(#linearGradient10648)"
         inkscape:connector-curvature="0" />
      <path
         id="path9419"
         d="m 308.2,354.37 c 33.956,-11.814 43.437,-6.7808 43.437,-6.7808 0,0 3.3072,0.15124 2.0008,-3.0012 -7.809,-1.9019 -29.139,-1.3529 -45.438,9.7819 z"
         sodipodi:nodetypes="cccc"
         style="opacity:0.9;fill:#ffffff;filter:url(#filter9442)"
         inkscape:connector-curvature="0" />
      <path
         id="path9290"
         d="m 359.06,333.88 c -22.804,0.0804 -46.241,1.563 -50.438,2.2188 -6.1046,0.95375 -14.493,4.1534 -14.75,4 -0.25742,-0.15341 -27.754,12.708 -44.531,18.688 -16.777,5.9797 -124.16,14.669 -127.31,51.625 l 0.25,0.46875 c -0.20103,2.6115 -1.1677,28.054 38.281,38.094 98.894,20.399 313.72,-33.438 313.72,-33.438 0,0 15.253,-66.169 14.656,-66.188 0,0 -69.326,-11.594 -101.03,-14.5 -8.2249,-0.75395 -18.478,-1.0053 -28.844,-0.96875 z"
         sodipodi:nodetypes="sssscccccss"
         style="fill:none;stroke:url(#linearGradient10650);stroke-width:1px"
         inkscape:connector-curvature="0" />
    </g>
  </g>
  <metadata
     id="metadata130">
    <rdf:RDF>
      <cc:Work>
        <dc:format>image/svg+xml</dc:format>
        <dc:type
           rdf:resource="http://purl.org/dc/dcmitype/StillImage" />
        <cc:license
           rdf:resource="http://creativecommons.org/publicdomain/zero/1.0/" />
        <dc:publisher>
          <cc:Agent
             rdf:about="http://openclipart.org/">
            <dc:title>Openclipart</dc:title>
          </cc:Agent>
        </dc:publisher>
        <dc:title>Shinkansen N700 Frontview</dc:title>
        <dc:date>2011-10-23T16:24:23</dc:date>
        <dc:description>Shinkansen N700 Frontview. Traced from a picture taken at Shin Kobe station. </dc:description>
        <dc:source>https://openclipart.org/detail/164521/shinkansen-n700-frontview-by-uroesch</dc:source>
        <dc:creator>
          <cc:Agent>
            <dc:title>uroesch</dc:title>
          </cc:Agent>
        </dc:creator>
        <dc:subject>
          <rdf:Bag>
            <rdf:li>JR</rdf:li>
            <rdf:li>Japan</rdf:li>
            <rdf:li>N700</rdf:li>
            <rdf:li>Nozomi</rdf:li>
            <rdf:li>Shinkansen</rdf:li>
            <rdf:li>bullet train</rdf:li>
            <rdf:li>high speed rail</rdf:li>
            <rdf:li>railway</rdf:li>
            <rdf:li>train</rdf:li>
            <rdf:li>transportation</rdf:li>
            <rdf:li>ã®ãžã¿</rdf:li>
            <rdf:li>æ–°å¹¹ç·š</rdf:li>
          </rdf:Bag>
        </dc:subject>
      </cc:Work>
      <cc:License
         rdf:about="http://creativecommons.org/publicdomain/zero/1.0/">
        <cc:permits
           rdf:resource="http://creativecommons.org/ns#Reproduction" />
        <cc:permits
           rdf:resource="http://creativecommons.org/ns#Distribution" />
        <cc:permits
           rdf:resource="http://creativecommons.org/ns#DerivativeWorks" />
      </cc:License>
    </rdf:RDF>
  </metadata>
</svg>
