<?xml version="1.0" encoding="UTF-8" standalone="no"?>
<!-- Created with Inkscape (http://www.inkscape.org/) -->

<svg
   xmlns:dc="http://purl.org/dc/elements/1.1/"
   xmlns:cc="http://creativecommons.org/ns#"
   xmlns:rdf="http://www.w3.org/1999/02/22-rdf-syntax-ns#"
   xmlns:svg="http://www.w3.org/2000/svg"
   xmlns="http://www.w3.org/2000/svg"
   xmlns:sodipodi="http://sodipodi.sourceforge.net/DTD/sodipodi-0.dtd"
   xmlns:inkscape="http://www.inkscape.org/namespaces/inkscape"
   id="svg2"
   viewBox="0 0 425.43 238.56"
   version="1.0"
   inkscape:version="0.92.4 5da689c313, 2019-01-14"
   sodipodi:docname="yamanote.svg">
  <defs
     id="defs953" />
  <sodipodi:namedview
     pagecolor="#ffffff"
     bordercolor="#666666"
     borderopacity="1"
     objecttolerance="10"
     gridtolerance="10"
     guidetolerance="10"
     inkscape:pageopacity="0"
     inkscape:pageshadow="2"
     inkscape:window-width="1272"
     inkscape:window-height="1382"
     id="namedview951"
     showgrid="false"
     inkscape:zoom="1.2216428"
     inkscape:cx="363.02325"
     inkscape:cy="-42.99069"
     inkscape:window-x="1280"
     inkscape:window-y="24"
     inkscape:window-maximized="0"
     inkscape:current-layer="layer1" />
  <g
     id="layer1"
     transform="translate(-128.52,-202.24)">
    <path
       id="path2499"
       style="fill:#1a1a1a;fill-rule:evenodd;stroke:#000000;stroke-width:1.07599998px"
       d="m 129.06,330.93 9.07,38.27 286.25,71.05 114.08,-16.64 5.33,-54.05 -410.46,-42.26 z"
       inkscape:connector-curvature="0" />
    <path
       id="path2453"
       style="fill:#f2f2f2;fill-rule:evenodd;stroke:#000000;stroke-width:1px"
       d="m 129.97,279.78 279.29,-73.51 -6.36,16.97 -272.81,61.49 z"
       inkscape:connector-curvature="0" />
    <path
       id="path2455"
       style="fill:#f9f9f9;fill-rule:evenodd;stroke:#000000;stroke-width:1px"
       d="m 408.38,206.28 48.95,-3.54 21.91,2.12 22.62,4.24 43.12,16.96 3.53,4.24 3.53,24.04 0.71,63.61 0.71,6.36 -3.54,27.57 -4.94,21.21 -106.74,5.65 -31.1,-2.12 -2.12,-12.02 -4.24,-26.86 2.83,-104.61 -2.26,-11.1 z"
       inkscape:connector-curvature="0" />
    <path
       id="path2457"
       style="fill:none;stroke:#000000;stroke-width:1px"
       d="m 430.47,211.93 -2.12,118.04 1.41,7.77 115.92,0.71 3.54,-7.07 v -72.1 l -2.83,-26.86 -8.48,-4.94 -22.62,-9.9 -40.29,-7.77 z"
       inkscape:connector-curvature="0" />
    <path
       id="path2459"
       style="fill:#71c837;fill-rule:evenodd;stroke:#000000;stroke-width:1px"
       d="m 429.19,310.18 119.32,3.53 0.91,16.97 -2.03,6.46 -2.22,0.6 -114.7,-0.2 -1.42,-4.74 z"
       inkscape:connector-curvature="0" />
    <path
       id="path2461"
       style="fill:#333333;fill-rule:evenodd;stroke:#000000;stroke-width:1px"
       d="m 430.26,232.36 117.3,15.46 -1.6,-16.53 -30.93,-14.39 -40.52,-6.93 -43.72,1.6 z"
       inkscape:connector-curvature="0" />
    <path
       id="path2463"
       style="fill:#cccccc;fill-rule:evenodd;stroke:#000000;stroke-width:1px"
       d="m 406.8,376.31 -277.77,-45.32 1.06,-46.91 271.06,-61.32 1.92,10.13 -2.67,107.17 z"
       inkscape:connector-curvature="0" />
    <path
       id="path2467"
       style="fill:#f9f9f9;fill-rule:evenodd;stroke:#000000;stroke-width:1px"
       d="m 400.4,401.9 15.47,4.8 2.66,-8.53 h 34.66 l 1.6,-12.26 13.33,-1.6 1.06,11.2 3.73,1.06 42.12,-4.8 0.54,-9.59 9.06,-1.6 2.13,12.26 12.8,-1.6 v 19.73 l -6.4,9.06 -57.58,8.53 -38.39,2.67 -21.86,-6.4 -12.79,-11.73 -3.2,-4.26 z"
       inkscape:connector-curvature="0" />
    <path
       id="path2539"
       style="fill:#71c837;fill-rule:evenodd;stroke:#71c837;stroke-width:0.99861997px"
       d="m 376.9,324.53 1.4,17.89 -247.99,-20 v -8.07 l 246.24,6.67 z"
       inkscape:connector-curvature="0" />
    <path
       id="path2473"
       style="fill:#71c837;fill-rule:evenodd;stroke:#000000;stroke-width:1px"
       d="m 373.21,245.16 -1.06,79.97 2.13,33.59 21.33,2.66 -3.74,-33.05 2.67,-87.97 z"
       inkscape:connector-curvature="0" />
    <path
       id="path2537"
       style="fill:#8dd35f;fill-rule:evenodd;stroke:#8dd35f;stroke-width:0.96437001px"
       d="m 131.15,284.17 -0.28,5.9 271.23,-53.36 -0.18,-3.27 -1.71,-9.56 z"
       inkscape:connector-curvature="0" />
    <path
       id="path2475"
       style="fill:#afdde9;fill-rule:evenodd;stroke:#000000;stroke-width:1px"
       d="m 266.58,267.55 -2.13,35.72 3.2,6.93 h 25.06 l 2.66,-5.33 v -39.99 l -3.2,-1.6 z"
       inkscape:connector-curvature="0" />
    <path
       id="path2477"
       style="fill:#b3b3b3;fill-rule:evenodd;stroke:#000000;stroke-width:1px"
       d="m 237.79,342.72 17.59,2.14 -2.66,-17.06 0.53,-61.32 -17.59,3.2 -1.6,51.72 z"
       inkscape:connector-curvature="0" />
    <path
       id="path2479"
       style="fill:#afdde9;fill-rule:evenodd;stroke:#000000;stroke-width:1px"
       d="m 203.84,280.07 -0.17,29.6 19.1,-0.43 3.29,-29.43 -2.13,-3.73 z"
       inkscape:connector-curvature="0" />
    <path
       id="path2481"
       style="fill:#b3b3b3;fill-rule:evenodd;stroke:#000000;stroke-width:1px"
       d="m 186.07,279.81 0.54,54.92 10.13,1.06 v -57.58 z"
       inkscape:connector-curvature="0" />
    <path
       id="path2487"
       style="fill:#afdde9;fill-rule:evenodd;stroke:#000000;stroke-width:1px"
       d="m 166.25,310.49 12.36,-0.29 1.07,-26.12 -12.71,2.73 z"
       inkscape:connector-curvature="0" />
    <path
       id="path2489"
       style="fill:#b3b3b3;fill-rule:evenodd;stroke:#000000;stroke-width:1px"
       d="m 154.62,285.68 0.53,44.25 6.4,0.53 v -45.85 z"
       inkscape:connector-curvature="0" />
    <path
       id="path2491"
       style="fill:#afdde9;fill-rule:evenodd;stroke:#000000;stroke-width:1px"
       d="m 149.82,289.04 -1.16,20.52 -8.97,0.11 1.14,-18.3 z"
       inkscape:connector-curvature="0" />
    <path
       id="path2493"
       style="fill:#333333;fill-rule:evenodd;stroke:#000000;stroke-width:1px"
       d="m 433.78,356.59 1.6,9.59 23.99,-1.06 -0.53,-11.2 z"
       inkscape:connector-curvature="0" />
    <path
       id="path2495"
       style="fill:#333333;fill-rule:evenodd;stroke:#000000;stroke-width:1px"
       d="m 517.1,352.85 -0.34,10.85 21.86,-1.07 0.87,-9.24 z"
       inkscape:connector-curvature="0" />
    <path
       id="path2497"
       style="fill:#d5f6ff;fill-rule:evenodd;stroke:#000000;stroke-width:1.00209999px"
       d="m 430.27,232.36 -1.07,77.31 119.38,3.2 0.54,-55.45 -2.14,-9.07 z"
       inkscape:connector-curvature="0" />
    <path
       id="path2471"
       style="fill:#b3b3b3;fill-rule:evenodd;stroke:#000000;stroke-width:1px"
       d="m 311.9,256.35 35.19,-6.93 -1.07,79.44 3.2,27.19 -34.12,-4.8 -2.67,-37.32 z"
       inkscape:connector-curvature="0" />
    <path
       id="path2501"
       style="fill:none;stroke:#000000;stroke-width:1px"
       d="m 326.12,253.39 -0.4,72.15 2.82,27.42"
       inkscape:connector-curvature="0" />
    <path
       id="path2503"
       style="fill:none;stroke:#000000;stroke-width:1px"
       d="m 243.89,268.3 -2.42,51.6 4.83,23.38"
       inkscape:connector-curvature="0" />
    <path
       id="path2505"
       style="fill:none;stroke:#000000;stroke-width:1px"
       d="m 190.67,279.19 0.81,56.03"
       inkscape:connector-curvature="0" />
    <path
       id="path2507"
       style="fill:none;stroke:#000000;stroke-width:1px"
       d="m 157.22,285.23 0.8,44.75"
       inkscape:connector-curvature="0" />
    <path
       id="path2509"
       style="fill:#afdde9;fill-rule:evenodd;stroke:#000000;stroke-width:1px"
       d="m 376.51,250.16 -0.4,43.94 12.09,-1.21 1.12,-45.94 z"
       inkscape:connector-curvature="0" />
    <path
       id="path2513"
       style="fill:#afdde9;fill-rule:evenodd;stroke:#000000;stroke-width:1px"
       d="m 314.03,259.84 8.06,-2.02 0.58,40.73 -9.05,1.19 z"
       inkscape:connector-curvature="0" />
    <path
       id="path2515"
       style="fill:#afdde9;fill-rule:evenodd;stroke:#000000;stroke-width:1px"
       d="m 328.54,257.38 v 41.56 l 13.62,-1.35 -0.23,-43.34 z"
       inkscape:connector-curvature="0" />
    <path
       id="path2519"
       style="fill:#afdde9;fill-rule:evenodd;stroke:#000000;stroke-width:1px"
       d="m 237.03,272.33 -0.8,37.9 3.22,-0.41 1.61,-38.29 z"
       inkscape:connector-curvature="0" />
    <path
       id="path2521"
       style="fill:#afdde9;fill-rule:evenodd;stroke:#000000;stroke-width:1px"
       d="m 245.5,271.53 5.64,-1.62 -1.21,39.91 h -6.04 z"
       inkscape:connector-curvature="0" />
    <path
       id="path2527"
       style="fill:#afdde9;fill-rule:evenodd;stroke:#000000;stroke-width:1px"
       d="m 192.29,281.81 v 25.59 l 2.42,-0.4 -0.41,-25.8 z"
       inkscape:connector-curvature="0" />
    <path
       id="path2529"
       style="fill:#afdde9;fill-rule:evenodd;stroke:#000000;stroke-width:1px"
       d="m 187.31,282.43 0.26,25.34 2.02,-0.35 -0.44,-25.42 z"
       inkscape:connector-curvature="0" />
    <path
       id="path2531"
       style="fill:none;stroke:#000000;stroke-width:1px"
       d="m 158.81,288.05 0.44,23.5 0.61,-23.59 z"
       inkscape:connector-curvature="0" />
    <path
       id="path2533"
       style="fill:none;stroke:#000000;stroke-width:1px"
       d="m 155.92,288.23 0.17,18.06 0.17,4.73"
       inkscape:connector-curvature="0" />
    <path
       id="path2548"
       style="fill:#1a1a1a;fill-rule:evenodd;stroke:#000000;stroke-width:1px"
       d="m 466.17,215.09 -1.41,12.98 51.92,7.01 1.05,-12.98 z"
       inkscape:connector-curvature="0" />
    <path
       id="text2544"
       style="fill:#d45500"
       d="m 473.97,224.94 0.38,-2.71 1.98,0.28 c 0.11,0.02 0.2,-0.1 0.22,-0.25 0.02,-0.15 -0.03,-0.27 -0.14,-0.28 l -1.99,-0.28 0.26,-1.88 c 0.02,-0.15 -0.06,-0.24 -0.2,-0.26 -0.15,-0.02 -0.27,0.04 -0.29,0.19 l -0.71,5.12 -2.1,-0.29 c -0.11,-0.02 -0.2,0.09 -0.22,0.23 -0.02,0.14 0.03,0.28 0.15,0.3 l 5.04,0.7 c 0.12,0.02 0.2,-0.1 0.22,-0.24 0.02,-0.15 -0.03,-0.27 -0.15,-0.29 l -2.45,-0.34 m 5.04,-0.87 0.1,-0.68 0.59,0.08 c 0.34,0.05 0.53,-0.09 0.58,-0.46 l 0.27,-1.9 c 0.05,-0.38 -0.1,-0.55 -0.44,-0.6 l -1.58,-0.22 c -0.34,-0.05 -0.52,0.08 -0.57,0.46 l -0.27,1.9 c -0.05,0.37 0.09,0.55 0.43,0.6 l 0.58,0.08 -0.09,0.68 -0.99,-0.13 c -0.11,-0.02 -0.18,0.06 -0.2,0.2 -0.01,0.13 0.03,0.24 0.13,0.25 l 0.99,0.14 -0.13,0.93 c -0.37,0.01 -0.75,0.01 -1.08,-0.01 -0.12,-0.01 -0.21,0.07 -0.23,0.2 0,0.01 -0.01,0.03 -0.01,0.04 0,0.16 0.07,0.27 0.2,0.29 h 0.03 c 0.79,0.01 1.74,-0.05 2.51,-0.16 0.12,-0.02 0.18,-0.09 0.2,-0.2 v -0.07 c -0.01,-0.12 -0.05,-0.18 -0.14,-0.2 -0.03,0 -0.06,0 -0.09,0.01 -0.3,0.04 -0.63,0.07 -0.97,0.08 l 0.12,-0.85 0.96,0.13 c 0.11,0.02 0.17,-0.07 0.19,-0.2 0.02,-0.14 -0.02,-0.24 -0.12,-0.25 l -0.97,-0.14 m 0.05,-3.26 -0.12,0.82 -0.68,-0.09 0.09,-0.66 c 0.02,-0.13 0.08,-0.16 0.19,-0.14 l 0.52,0.07 m 0.4,0.06 0.53,0.07 c 0.11,0.02 0.16,0.06 0.15,0.19 l -0.1,0.65 -0.69,-0.09 0.11,-0.82 m -0.58,1.17 -0.12,0.86 -0.51,-0.07 c -0.11,-0.02 -0.16,-0.06 -0.14,-0.19 l 0.09,-0.7 0.68,0.1 m 0.41,0.06 0.7,0.09 -0.1,0.7 c -0.02,0.13 -0.08,0.16 -0.19,0.14 l -0.53,-0.07 0.12,-0.86 m 2.05,1.24 -0.36,2.6 c -0.03,0.2 -0.1,0.25 -0.29,0.22 -0.13,-0.01 -0.31,-0.07 -0.42,-0.11 -0.01,-0.01 -0.03,-0.01 -0.05,-0.01 -0.09,-0.02 -0.19,0.05 -0.22,0.17 -0.01,0.02 -0.01,0.04 -0.01,0.06 -0.02,0.13 0.03,0.23 0.14,0.27 0.14,0.05 0.35,0.1 0.53,0.13 0.48,0.07 0.69,-0.11 0.74,-0.54 l 0.39,-2.72 0.7,0.1 c 0.05,0 0.08,0.02 0.08,0.06 -0.01,0.01 -0.01,0.03 -0.03,0.05 -0.17,0.26 -0.41,0.51 -0.6,0.66 -0.06,0.05 -0.1,0.1 -0.1,0.16 -0.01,0.07 0,0.13 0.04,0.19 0.04,0.06 0.09,0.09 0.14,0.1 0.05,0.01 0.12,-0.02 0.17,-0.07 0.27,-0.22 0.55,-0.57 0.73,-0.86 0.07,-0.11 0.11,-0.2 0.12,-0.3 0.04,-0.23 -0.09,-0.4 -0.34,-0.44 l -0.83,-0.11 c 0.04,-0.01 0.09,-0.02 0.14,-0.05 0.05,-0.05 0.09,-0.1 0.09,-0.16 0.01,-0.05 0,-0.12 -0.05,-0.19 -0.03,-0.04 -0.06,-0.09 -0.09,-0.14 0.33,-0.2 0.66,-0.45 0.98,-0.77 0.09,-0.11 0.15,-0.22 0.17,-0.32 0.03,-0.21 -0.1,-0.4 -0.36,-0.44 l -1.78,-0.25 c -0.1,-0.01 -0.17,0.08 -0.19,0.22 -0.02,0.13 0.02,0.24 0.12,0.25 l 1.56,0.22 c 0.05,0.01 0.09,0.03 0.08,0.07 0,0.03 -0.02,0.06 -0.06,0.1 -0.19,0.19 -0.48,0.42 -0.77,0.59 -0.14,-0.18 -0.3,-0.35 -0.43,-0.49 -0.04,-0.04 -0.09,-0.07 -0.13,-0.08 -0.05,0 -0.1,0.02 -0.15,0.06 -0.05,0.04 -0.08,0.09 -0.08,0.15 -0.01,0.06 0.01,0.12 0.06,0.17 0.24,0.27 0.52,0.63 0.69,0.94 0.04,0.06 0.09,0.09 0.15,0.11 l -1.23,-0.17 c -0.1,-0.02 -0.17,0.08 -0.19,0.21 -0.02,0.13 0.02,0.24 0.13,0.25 l 0.81,0.11 m 4.9,0.34 c -0.3,-0.04 -0.57,0.2 -0.62,0.54 -0.05,0.34 0.15,0.65 0.45,0.69 0.29,0.04 0.57,-0.2 0.62,-0.54 0.05,-0.33 -0.16,-0.65 -0.45,-0.69 m 5.87,-0.58 -0.07,0.53 -1.46,-0.2 c -0.37,-0.05 -0.55,0.07 -0.61,0.47 l -0.19,1.39 c -0.06,0.38 0.08,0.56 0.45,0.62 l 1.12,0.15 c -0.28,0.26 -0.65,0.5 -1.03,0.7 -0.42,0.21 -0.87,0.34 -1.19,0.41 -0.08,0.02 -0.13,0.06 -0.17,0.12 -0.01,0.03 -0.02,0.06 -0.03,0.1 0,0.04 0,0.08 0.01,0.12 0.02,0.12 0.08,0.18 0.18,0.2 0.04,0 0.08,0 0.14,-0.01 0.34,-0.09 0.85,-0.27 1.28,-0.51 0.34,-0.19 0.84,-0.57 1.19,-0.96 -0.07,0.2 -0.12,0.42 -0.14,0.59 l -0.18,1.26 c -0.01,0.12 0.06,0.2 0.19,0.22 0.13,0.02 0.22,-0.04 0.24,-0.16 l 0.18,-1.26 c 0.02,-0.17 0.04,-0.4 0.02,-0.6 0.23,0.45 0.63,0.98 0.98,1.3 0.36,0.33 0.84,0.66 1.19,0.83 0.03,0.01 0.06,0.03 0.09,0.03 0.1,0.01 0.19,-0.04 0.24,-0.16 0.01,-0.04 0.02,-0.08 0.03,-0.11 0.01,-0.12 -0.03,-0.19 -0.15,-0.25 -0.32,-0.16 -0.73,-0.42 -1.08,-0.7 -0.32,-0.26 -0.67,-0.65 -0.91,-1.01 l 1.27,0.18 c 0.37,0.05 0.56,-0.08 0.61,-0.47 l 0.19,-1.39 c 0.06,-0.39 -0.09,-0.57 -0.46,-0.62 l -1.58,-0.22 0.08,-0.53 2.43,0.34 c 0.1,0.01 0.18,-0.09 0.2,-0.22 0.02,-0.14 -0.03,-0.25 -0.14,-0.26 l -2.42,-0.34 0.07,-0.51 c 0.01,-0.13 -0.06,-0.21 -0.19,-0.22 -0.13,-0.02 -0.22,0.03 -0.24,0.16 l -0.07,0.51 -2.29,-0.32 c -0.1,-0.02 -0.18,0.07 -0.2,0.21 -0.02,0.14 0.03,0.25 0.14,0.27 l 2.28,0.32 m 0.21,1.62 0.08,-0.58 1.47,0.21 c 0.14,0.02 0.2,0.07 0.18,0.24 l -0.05,0.37 -1.68,-0.24 m -0.43,-0.06 -1.54,-0.21 0.05,-0.37 c 0.02,-0.17 0.1,-0.2 0.24,-0.19 l 1.33,0.19 -0.08,0.58 m -0.06,0.43 -0.08,0.58 -1.34,-0.19 c -0.13,-0.02 -0.2,-0.08 -0.18,-0.24 l 0.06,-0.37 1.54,0.22 m 0.43,0.06 1.68,0.23 -0.06,0.38 c -0.02,0.15 -0.1,0.19 -0.23,0.17 l -1.47,-0.2 0.08,-0.58 m 6.34,-1.52 0.09,-0.62 c 0.02,-0.13 -0.08,-0.21 -0.22,-0.23 -0.14,-0.02 -0.25,0.03 -0.27,0.16 l -0.08,0.62 -2.27,-0.32 c -0.11,-0.01 -0.18,0.09 -0.2,0.23 -0.02,0.14 0.03,0.25 0.13,0.27 l 5.09,0.71 c 0.1,0.01 0.18,-0.09 0.19,-0.22 0.02,-0.14 -0.02,-0.26 -0.12,-0.27 l -2.34,-0.33 m -0.84,2.92 -0.23,1.65 c -0.03,0.22 -0.11,0.28 -0.31,0.25 -0.11,-0.01 -0.31,-0.07 -0.42,-0.12 -0.01,-0.01 -0.03,-0.01 -0.05,-0.01 -0.07,-0.01 -0.15,0.04 -0.2,0.16 -0.01,0.03 -0.01,0.05 -0.01,0.08 -0.02,0.11 0.03,0.21 0.11,0.24 0.17,0.08 0.39,0.13 0.59,0.16 0.44,0.06 0.68,-0.09 0.74,-0.54 l 0.25,-1.81 1.18,0.17 c 0.34,0.05 0.51,-0.09 0.57,-0.48 l 0.12,-0.86 c 0.05,-0.4 -0.08,-0.58 -0.41,-0.63 l -2.91,-0.4 c -0.33,-0.05 -0.51,0.09 -0.56,0.49 l -0.12,0.85 c -0.06,0.4 0.07,0.58 0.41,0.62 l 1.25,0.18 m -1.06,-0.62 c -0.11,-0.02 -0.16,-0.06 -0.14,-0.2 l 0.1,-0.67 c 0.02,-0.15 0.07,-0.17 0.19,-0.16 l 2.64,0.37 c 0.11,0.02 0.16,0.06 0.14,0.2 l -0.09,0.67 c -0.02,0.15 -0.08,0.17 -0.19,0.16 l -2.65,-0.37 m 2.31,1.2 c -0.08,0.04 -0.12,0.11 -0.13,0.19 -0.01,0.04 0,0.08 0.01,0.12 0.21,0.57 0.67,1.24 1.04,1.63 0.03,0.04 0.07,0.06 0.12,0.06 0.08,0.01 0.16,-0.02 0.22,-0.09 0.04,-0.05 0.06,-0.1 0.07,-0.16 0.01,-0.09 -0.01,-0.18 -0.08,-0.24 -0.35,-0.38 -0.73,-0.9 -0.95,-1.42 -0.02,-0.07 -0.08,-0.11 -0.15,-0.12 -0.05,-0.01 -0.1,0 -0.15,0.03 m -2.26,-0.32 c -0.04,-0.03 -0.09,-0.05 -0.13,-0.06 -0.07,-0.01 -0.13,0.01 -0.17,0.07 -0.32,0.45 -0.77,0.84 -1.27,1.12 -0.07,0.04 -0.12,0.11 -0.13,0.19 -0.01,0.06 0.01,0.12 0.03,0.17 0.04,0.07 0.1,0.12 0.18,0.13 0.05,0.01 0.1,0 0.14,-0.02 0.49,-0.28 1.05,-0.76 1.39,-1.27 0.03,-0.04 0.05,-0.08 0.05,-0.12 0.01,-0.08 -0.02,-0.15 -0.09,-0.21 m 6.71,-1.66 c -0.33,2.09 -1.1,3.23 -2.38,3.82 -0.09,0.04 -0.14,0.11 -0.15,0.2 -0.01,0.06 0,0.13 0.03,0.19 0.03,0.09 0.1,0.13 0.17,0.14 0.05,0.01 0.12,-0.01 0.17,-0.03 1.08,-0.54 1.82,-1.33 2.32,-2.85 l 1.68,0.24 c 0.14,0.02 0.2,0.07 0.17,0.22 -0.11,0.82 -0.37,1.65 -0.53,2.05 -0.09,0.23 -0.2,0.3 -0.48,0.26 -0.18,-0.03 -0.4,-0.1 -0.55,-0.16 -0.03,-0.01 -0.05,-0.02 -0.08,-0.02 -0.1,-0.01 -0.18,0.05 -0.22,0.18 -0.02,0.03 -0.02,0.06 -0.03,0.08 -0.02,0.13 0.04,0.24 0.15,0.27 0.2,0.09 0.46,0.15 0.71,0.19 0.44,0.06 0.69,-0.07 0.88,-0.47 0.21,-0.42 0.51,-1.47 0.65,-2.44 0.06,-0.41 -0.09,-0.61 -0.46,-0.66 l -1.74,-0.24 c 0.08,-0.3 0.14,-0.6 0.2,-0.9 l 2.81,0.39 c 0.11,0.02 0.19,-0.09 0.21,-0.23 0.02,-0.15 -0.02,-0.28 -0.14,-0.29 l -2.31,-0.33 0.12,-0.87 c 0.02,-0.13 -0.08,-0.22 -0.21,-0.24 -0.14,-0.01 -0.26,0.04 -0.28,0.17 l -0.12,0.87 -2.23,-0.31 c -0.12,-0.02 -0.2,0.09 -0.22,0.24 -0.02,0.14 0.03,0.27 0.14,0.29 l 1.72,0.24 m 3.72,4.46 c -0.07,0.43 0.1,0.66 0.47,0.71 l 3.87,0.54 c 0.38,0.06 0.6,-0.11 0.66,-0.54 l 0.46,-3.27 c 0.06,-0.42 -0.11,-0.63 -0.49,-0.69 l -2.08,-0.29 c 0.17,-0.26 0.32,-0.55 0.45,-0.84 l 2.38,0.33 c 0.1,0.02 0.18,-0.07 0.2,-0.22 0.02,-0.14 -0.03,-0.25 -0.14,-0.26 l -5.09,-0.72 c -0.12,-0.01 -0.19,0.08 -0.21,0.23 -0.02,0.14 0.03,0.24 0.14,0.26 l 2.23,0.31 c -0.12,0.3 -0.28,0.58 -0.46,0.84 l -1.29,-0.18 c -0.37,-0.05 -0.59,0.11 -0.65,0.53 l -0.45,3.26 m 0.9,-3.08 c 0.03,-0.2 0.1,-0.25 0.3,-0.22 l 0.65,0.09 -0.5,3.56 -0.65,-0.09 c -0.2,-0.03 -0.25,-0.11 -0.23,-0.3 l 0.43,-3.04 m 0.89,3.49 0.12,-0.92 1.32,0.19 -0.13,0.91 -1.31,-0.18 m 1.75,0.24 0.5,-3.55 0.71,0.09 c 0.2,0.03 0.26,0.1 0.23,0.3 l -0.43,3.04 c -0.02,0.19 -0.1,0.25 -0.3,0.22 l -0.71,-0.1 m 0.06,-3.62 -0.12,0.88 -1.32,-0.19 0.12,-0.87 1.32,0.18 m -1.5,1.15 1.32,0.18 -0.13,0.87 -1.31,-0.19 0.12,-0.86"
       inkscape:connector-curvature="0" />
    <path
       id="path2572"
       style="fill:#333333;fill-rule:evenodd;stroke:#000000;stroke-width:1.00409997px"
       d="m 429.3,293.03 0.5,16.38 118.6,2.98 v -16.38 l -119.1,-4.96 z"
       inkscape:connector-curvature="0" />
    <path
       id="path2574"
       style="fill:#d4aa00;fill-rule:evenodd;stroke:#000000;stroke-miterlimit:2.79999995"
       d="m 447.66,360.78 a 4.22,4.22 0 1 1 -8.44,0 4.22,4.22 0 1 1 8.44,0 z"
       inkscape:connector-curvature="0" />
    <path
       id="path2576"
       style="fill:#d4aa00;fill-rule:evenodd;stroke:#000000;stroke-miterlimit:2.79999995"
       d="m 447.66,360.78 a 4.22,4.22 0 1 1 -8.44,0 4.22,4.22 0 1 1 8.44,0 z"
       transform="matrix(0.94836,0,0,0.93056,110.74,22.494)"
       inkscape:connector-curvature="0" />
  </g>
  <metadata
     id="metadata948">
    <rdf:RDF>
      <cc:Work>
        <dc:format>image/svg+xml</dc:format>
        <dc:type
           rdf:resource="http://purl.org/dc/dcmitype/StillImage" />
        <cc:license
           rdf:resource="http://creativecommons.org/licenses/publicdomain/" />
        <dc:publisher>
          <cc:Agent
             rdf:about="http://openclipart.org/">
            <dc:title>Openclipart</dc:title>
          </cc:Agent>
        </dc:publisher>
        <dc:title>Yamanote Train</dc:title>
        <dc:date>2012-04-27T09:14:16</dc:date>
        <dc:description>Nothing says &quot;Tokyo&quot; more than the Yamanote line. It cuts through the heart of downtown, carrying millions of passengers a day. I didn't see any clipart on here, and so I cooked up something myself. I'm not the best artist, but I hope this helps someone who needs clipart of a Japanese train. Hey maybe for a presentation about Japan for your class? Or maybe for your Train Lovers Group that meets on every Monday to eat meat and talk about trains? No? What?</dc:description>
        <dc:source>https://openclipart.org/detail/169711/yamanote-train-by-j4p4n</dc:source>
        <dc:creator>
          <cc:Agent>
            <dc:title>j4p4n</dc:title>
          </cc:Agent>
        </dc:creator>
        <dc:subject>
          <rdf:Bag>
            <rdf:li>JR</rdf:li>
            <rdf:li>japan</rdf:li>
            <rdf:li>tokyo</rdf:li>
            <rdf:li>train</rdf:li>
            <rdf:li>transportation</rdf:li>
            <rdf:li>yamanote</rdf:li>
            <rdf:li>å±±æ‰‹ç·š</rdf:li>
            <rdf:li>æ±äº¬</rdf:li>
          </rdf:Bag>
        </dc:subject>
      </cc:Work>
      <cc:License
         rdf:about="http://creativecommons.org/licenses/publicdomain/">
        <cc:permits
           rdf:resource="http://creativecommons.org/ns#Reproduction" />
        <cc:permits
           rdf:resource="http://creativecommons.org/ns#Distribution" />
        <cc:permits
           rdf:resource="http://creativecommons.org/ns#DerivativeWorks" />
      </cc:License>
    </rdf:RDF>
  </metadata>
</svg>
