<?xml version="1.0" encoding="UTF-8" standalone="no"?>
<!-- Created with Inkscape (http://www.inkscape.org/) -->

<svg
   xmlns:dc="http://purl.org/dc/elements/1.1/"
   xmlns:cc="http://creativecommons.org/ns#"
   xmlns:rdf="http://www.w3.org/1999/02/22-rdf-syntax-ns#"
   xmlns:svg="http://www.w3.org/2000/svg"
   xmlns="http://www.w3.org/2000/svg"
   xmlns:sodipodi="http://sodipodi.sourceforge.net/DTD/sodipodi-0.dtd"
   xmlns:inkscape="http://www.inkscape.org/namespaces/inkscape"
   id="svg2"
   viewBox="0 0 425.43 238.56"
   version="1.0"
   inkscape:version="0.92.4 5da689c313, 2019-01-14"
   sodipodi:docname="train.svg">
  <defs
     id="defs953" />
  <sodipodi:namedview
     pagecolor="#ffffff"
     bordercolor="#666666"
     borderopacity="1"
     objecttolerance="10"
     gridtolerance="10"
     guidetolerance="10"
     inkscape:pageopacity="0"
     inkscape:pageshadow="2"
     inkscape:window-width="1272"
     inkscape:window-height="1382"
     id="namedview951"
     showgrid="false"
     inkscape:zoom="4.8865712"
     inkscape:cx="328.23946"
     inkscape:cy="87.194079"
     inkscape:window-x="1280"
     inkscape:window-y="24"
     inkscape:window-maximized="0"
     inkscape:current-layer="layer1"
     inkscape:lockguides="false" />
  <g
     id="layer1"
     transform="translate(-128.52,-202.24)">
    <path
       id="path2499"
       style="fill:#1a1a1a;fill-rule:evenodd;stroke:#000000;stroke-width:1.07599998px"
       d="m 129.06,330.93 9.07,38.27 286.25,71.05 114.08,-16.64 5.33,-54.05 -410.46,-42.26 z"
       inkscape:connector-curvature="0" />
    <path
       id="path2453"
       style="fill:#f2f2f2;fill-rule:evenodd;stroke:#000000;stroke-width:1px"
       d="m 129.97,279.78 279.29,-73.51 -6.36,16.97 -272.81,61.49 z"
       inkscape:connector-curvature="0" />
    <path
       id="path2455"
       style="fill:#f9f9f9;fill-rule:evenodd;stroke:#000000;stroke-width:1px"
       d="m 408.38,206.28 48.95,-3.54 21.91,2.12 22.62,4.24 43.12,16.96 3.53,4.24 3.53,24.04 0.71,63.61 0.71,6.36 -3.54,27.57 -4.94,21.21 -106.74,5.65 -31.1,-2.12 -2.12,-12.02 -4.24,-26.86 2.83,-104.61 -2.26,-11.1 z"
       inkscape:connector-curvature="0" />
    <path
       id="path2457"
       style="fill:none;stroke:#000000;stroke-width:1px"
       d="m 430.47,211.93 -2.12,118.04 1.41,7.77 115.92,0.71 3.54,-7.07 v -72.1 l -2.83,-26.86 -8.48,-4.94 -22.62,-9.9 -40.29,-7.77 z"
       inkscape:connector-curvature="0" />
    <path
       id="path2459"
       style="fill:#71c837;fill-rule:evenodd;stroke:#000000;stroke-width:1px"
       d="m 429.19,310.18 119.32,3.53 0.91,16.97 -2.03,6.46 -2.22,0.6 -114.7,-0.2 -1.42,-4.74 z"
       inkscape:connector-curvature="0" />
    <path
       id="path2461"
       style="fill:#333333;fill-rule:evenodd;stroke:#000000;stroke-width:1px"
       d="m 430.26,232.36 117.3,15.46 -1.6,-16.53 -30.93,-14.39 -40.52,-6.93 -43.72,1.6 z"
       inkscape:connector-curvature="0" />
    <path
       id="path2463"
       style="fill:#cccccc;fill-rule:evenodd;stroke:#000000;stroke-width:1px"
       d="m 406.8,376.31 -277.77,-45.32 1.06,-46.91 271.06,-61.32 1.92,10.13 -2.67,107.17 z"
       inkscape:connector-curvature="0" />
    <path
       id="path2467"
       style="fill:#f9f9f9;fill-rule:evenodd;stroke:#000000;stroke-width:1px"
       d="m 400.4,401.9 15.47,4.8 2.66,-8.53 h 34.66 l 1.6,-12.26 13.33,-1.6 1.06,11.2 3.73,1.06 42.12,-4.8 0.54,-9.59 9.06,-1.6 2.13,12.26 12.8,-1.6 v 19.73 l -6.4,9.06 -57.58,8.53 -38.39,2.67 -21.86,-6.4 -12.79,-11.73 -3.2,-4.26 z"
       inkscape:connector-curvature="0" />
    <path
       id="path2539"
       style="fill:#71c837;fill-rule:evenodd;stroke:#71c837;stroke-width:0.99861997px"
       d="m 376.9,324.53 1.4,17.89 -247.99,-20 v -8.07 l 246.24,6.67 z"
       inkscape:connector-curvature="0" />
    <path
       id="path2473"
       style="fill:#71c837;fill-rule:evenodd;stroke:#000000;stroke-width:1px"
       d="m 373.21,245.16 -1.06,79.97 2.13,33.59 21.33,2.66 -3.74,-33.05 2.67,-87.97 z"
       inkscape:connector-curvature="0" />
    <path
       id="path2537"
       style="fill:#8dd35f;fill-rule:evenodd;stroke:#8dd35f;stroke-width:0.96437001px"
       d="m 131.15,284.17 -0.28,5.9 271.23,-53.36 -0.18,-3.27 -1.71,-9.56 z"
       inkscape:connector-curvature="0" />
    <path
       id="path2475"
       style="fill:#afdde9;fill-rule:evenodd;stroke:#000000;stroke-width:1px"
       d="m 266.58,267.55 -2.13,35.72 3.2,6.93 h 25.06 l 2.66,-5.33 v -39.99 l -3.2,-1.6 z"
       inkscape:connector-curvature="0" />
    <path
       id="path2477"
       style="fill:#b3b3b3;fill-rule:evenodd;stroke:#000000;stroke-width:1px"
       d="m 237.79,342.72 17.59,2.14 -2.66,-17.06 0.53,-61.32 -17.59,3.2 -1.6,51.72 z"
       inkscape:connector-curvature="0" />
    <path
       id="path2479"
       style="fill:#afdde9;fill-rule:evenodd;stroke:#000000;stroke-width:1px"
       d="m 203.84,280.07 -0.17,29.6 19.1,-0.43 3.29,-29.43 -2.13,-3.73 z"
       inkscape:connector-curvature="0" />
    <path
       id="path2481"
       style="fill:#b3b3b3;fill-rule:evenodd;stroke:#000000;stroke-width:1px"
       d="m 186.07,279.81 0.54,54.92 10.13,1.06 v -57.58 z"
       inkscape:connector-curvature="0" />
    <path
       id="path2487"
       style="fill:#afdde9;fill-rule:evenodd;stroke:#000000;stroke-width:1px"
       d="m 166.25,310.49 12.36,-0.29 1.07,-26.12 -12.71,2.73 z"
       inkscape:connector-curvature="0" />
    <path
       id="path2489"
       style="fill:#b3b3b3;fill-rule:evenodd;stroke:#000000;stroke-width:1px"
       d="m 154.62,285.68 0.53,44.25 6.4,0.53 v -45.85 z"
       inkscape:connector-curvature="0" />
    <path
       id="path2491"
       style="fill:#afdde9;fill-rule:evenodd;stroke:#000000;stroke-width:1px"
       d="m 149.82,289.04 -1.16,20.52 -8.97,0.11 1.14,-18.3 z"
       inkscape:connector-curvature="0" />
    <path
       id="path2493"
       style="fill:#333333;fill-rule:evenodd;stroke:#000000;stroke-width:1px"
       d="m 433.78,356.59 1.6,9.59 23.99,-1.06 -0.53,-11.2 z"
       inkscape:connector-curvature="0" />
    <path
       id="path2495"
       style="fill:#333333;fill-rule:evenodd;stroke:#000000;stroke-width:1px"
       d="m 517.1,352.85 -0.34,10.85 21.86,-1.07 0.87,-9.24 z"
       inkscape:connector-curvature="0" />
    <path
       id="path2497"
       style="fill:#d5f6ff;fill-rule:evenodd;stroke:#000000;stroke-width:1.00209999px"
       d="m 430.27,232.36 -1.07,77.31 119.38,3.2 0.54,-55.45 -2.14,-9.07 z"
       inkscape:connector-curvature="0" />
    <path
       id="path2471"
       style="fill:#b3b3b3;fill-rule:evenodd;stroke:#000000;stroke-width:1px"
       d="m 311.9,256.35 35.19,-6.93 -1.07,79.44 3.2,27.19 -34.12,-4.8 -2.67,-37.32 z"
       inkscape:connector-curvature="0" />
    <path
       id="path2501"
       style="fill:none;stroke:#000000;stroke-width:1px"
       d="m 326.12,253.39 -0.4,72.15 2.82,27.42"
       inkscape:connector-curvature="0" />
    <path
       id="path2503"
       style="fill:none;stroke:#000000;stroke-width:1px"
       d="m 243.89,268.3 -2.42,51.6 4.83,23.38"
       inkscape:connector-curvature="0" />
    <path
       id="path2505"
       style="fill:none;stroke:#000000;stroke-width:1px"
       d="m 190.67,279.19 0.81,56.03"
       inkscape:connector-curvature="0" />
    <path
       id="path2507"
       style="fill:none;stroke:#000000;stroke-width:1px"
       d="m 157.22,285.23 0.8,44.75"
       inkscape:connector-curvature="0" />
    <path
       id="path2509"
       style="fill:#afdde9;fill-rule:evenodd;stroke:#000000;stroke-width:1px"
       d="m 376.51,250.16 -0.4,43.94 12.09,-1.21 1.12,-45.94 z"
       inkscape:connector-curvature="0" />
    <path
       id="path2513"
       style="fill:#afdde9;fill-rule:evenodd;stroke:#000000;stroke-width:1px"
       d="m 314.03,259.84 8.06,-2.02 0.58,40.73 -9.05,1.19 z"
       inkscape:connector-curvature="0" />
    <path
       id="path2515"
       style="fill:#afdde9;fill-rule:evenodd;stroke:#000000;stroke-width:1px"
       d="m 328.54,257.38 v 41.56 l 13.62,-1.35 -0.23,-43.34 z"
       inkscape:connector-curvature="0" />
    <path
       id="path2519"
       style="fill:#afdde9;fill-rule:evenodd;stroke:#000000;stroke-width:1px"
       d="m 237.03,272.33 -0.8,37.9 3.22,-0.41 1.61,-38.29 z"
       inkscape:connector-curvature="0" />
    <path
       id="path2521"
       style="fill:#afdde9;fill-rule:evenodd;stroke:#000000;stroke-width:1px"
       d="m 245.5,271.53 5.64,-1.62 -1.21,39.91 h -6.04 z"
       inkscape:connector-curvature="0" />
    <path
       id="path2527"
       style="fill:#afdde9;fill-rule:evenodd;stroke:#000000;stroke-width:1px"
       d="m 192.29,281.81 v 25.59 l 2.42,-0.4 -0.41,-25.8 z"
       inkscape:connector-curvature="0" />
    <path
       id="path2529"
       style="fill:#afdde9;fill-rule:evenodd;stroke:#000000;stroke-width:1px"
       d="m 187.31,282.43 0.26,25.34 2.02,-0.35 -0.44,-25.42 z"
       inkscape:connector-curvature="0" />
    <path
       id="path2531"
       style="fill:none;stroke:#000000;stroke-width:1px"
       d="m 158.81,288.05 0.44,23.5 0.61,-23.59 z"
       inkscape:connector-curvature="0" />
    <path
       id="path2533"
       style="fill:none;stroke:#000000;stroke-width:1px"
       d="m 155.92,288.23 0.17,18.06 0.17,4.73"
       inkscape:connector-curvature="0" />
    <path
       id="path2548"
       style="fill:#1a1a1a;fill-rule:evenodd;stroke:#000000;stroke-width:1px"
       d="m 466.17,215.09 -1.41,12.98 51.92,7.01 1.05,-12.98 z"
       inkscape:connector-curvature="0" />
    <path
       id="path2572"
       style="fill:#333333;fill-rule:evenodd;stroke:#000000;stroke-width:1.00409997px"
       d="m 429.3,293.03 0.5,16.38 118.6,2.98 v -16.38 l -119.1,-4.96 z"
       inkscape:connector-curvature="0" />
    <path
       id="path2574"
       style="fill:#d4aa00;fill-rule:evenodd;stroke:#000000;stroke-miterlimit:2.79999995"
       d="m 447.66,360.78 a 4.22,4.22 0 1 1 -8.44,0 4.22,4.22 0 1 1 8.44,0 z"
       inkscape:connector-curvature="0" />
    <path
       id="path2576"
       style="fill:#d4aa00;fill-rule:evenodd;stroke:#000000;stroke-miterlimit:2.79999995"
       d="m 447.66,360.78 a 4.22,4.22 0 1 1 -8.44,0 4.22,4.22 0 1 1 8.44,0 z"
       transform="matrix(0.94836,0,0,0.93056,110.74,22.494)"
       inkscape:connector-curvature="0" />
    <g
       aria-label="日本語の勉強"
       style="font-style:normal;font-weight:normal;font-size:40px;line-height:1.25;font-family:sans-serif;letter-spacing:0px;word-spacing:0px;fill:#000000;fill-opacity:1;stroke:none"
       id="text972"
       transform="matrix(0.17744175,0.02122426,-0.02122426,0.17744175,391.9536,180.48864)">
      <path
         d="m 470.44542,193.12761 v -11.16 h 19.84 v 11.16 z m 19.84,-24.88 v 10.8 h -19.84 v -10.8 z m -22.84,-2.92 v 33.32 h 3 v -2.6 h 19.84 v 2.44 h 3.12 v -33.16 z"
         style="font-style:normal;font-variant:normal;font-weight:normal;font-stretch:normal;font-family:C059;-inkscape-font-specification:C059;fill:#d45500;fill-opacity:1"
         id="path974"
         inkscape:connector-curvature="0" />
      <path
         d="m 537.60535,173.92761 v -2.96 h -15.84 v -8.36 h -3.08 v 8.36 h -15.72 v 2.96 h 13.88 c -3.36,6.84 -9.16,13.32 -15.24,16.48 0.68,0.56 1.68,1.68 2.12,2.4 5.88,-3.4 11.28,-9.44 14.96,-16.36 v 12.24 h -7.8 v 2.96 h 7.8 v 7.44 h 3.08 v -7.44 h 7.6 v -2.96 h -7.6 v -12.24 c 3.6,6.92 8.96,13 15,16.32 0.44,-0.84 1.48,-2 2.2,-2.6 -6.28,-3.04 -12.04,-9.4 -15.36,-16.24 z"
         style="font-style:normal;font-variant:normal;font-weight:normal;font-stretch:normal;font-family:C059;-inkscape-font-specification:C059;fill:#d45500;fill-opacity:1"
         id="path976"
         inkscape:connector-curvature="0" />
      <path
         d="m 554.96527,163.96761 h -10.92 v 2.4 h 10.92 z m -2.4,24.16 v 6.68 h -6.24 v -6.68 z m 2.6,-2.44 h -11.44 v 13.36 h 2.6 v -1.8 h 8.84 z m -11.36,-3.08 h 11.2 v -2.36 h -11.2 z m 11.2,-7.8 h -11.2 v 2.36 h 11.2 z m -13.08,-3.08 h 14.44 v -2.44 h -14.44 z m 31.4,15.76 v 7.08 h -11.12 v -7.08 z m -13.92,11.6 h 2.8 v -1.84 h 11.12 v 1.68 h 2.88 v -14.08 h -16.8 z m 12.88,-25.76 v 5.8 h -7.68 c 0.36,-1.68 0.72,-3.68 1.08,-5.8 z m 2.84,5.8 v -8.36 h -9 c 0.24,-1.4 0.48,-2.8 0.68,-4.12 h 10.56 v -2.6 h -19.64 v 2.6 h 6.16 c -0.2,1.32 -0.4,2.72 -0.64,4.12 h -4.92 v 2.56 h 4.52 c -0.36,2.08 -0.76,4.12 -1.12,5.8 h -5.2 v 2.64 h 22.12 v -2.64 z"
         style="font-style:normal;font-variant:normal;font-weight:normal;font-stretch:normal;font-family:C059;-inkscape-font-specification:C059;fill:#d45500;fill-opacity:1"
         id="path978"
         inkscape:connector-curvature="0" />
      <path
         d="m 616.56519,182.04761 c 0,-8.12 -5.96,-14.72 -15.32,-14.72 -9.76,0 -17.48,7.6 -17.48,16.28 0,6.6 3.56,10.68 7.12,10.68 3.72,0 6.88,-4.2 9.32,-12.44 1.12,-3.72 1.88,-7.8 2.4,-11.52 6.8,0.56 10.68,5.56 10.68,11.6 0,6.92 -5.04,10.72 -10.16,11.88 -0.92,0.2 -2.16,0.4 -3.44,0.52 l 1.88,2.96 c 9.48,-1.24 15,-6.84 15,-15.24 z m -29.68,1.28 c 0,-5.44 4.72,-12 12.4,-12.96 -0.44,3.68 -1.24,7.48 -2.24,10.8 -2.04,6.76 -4.16,9.44 -6.04,9.44 -1.8,0 -4.12,-2.24 -4.12,-7.28 z"
         style="font-style:normal;font-variant:normal;font-weight:normal;font-stretch:normal;font-family:C059;-inkscape-font-specification:C059;fill:#d45500;fill-opacity:1"
         id="path980"
         inkscape:connector-curvature="0" />
      <path
         d="m 626.88512,174.84761 h 4.64 v 6.84 h -4.64 z m 7.92,-6.72 c -0.64,1.44 -1.52,2.96 -2.4,4.24 h -6.08 c 1.12,-1.36 2.12,-2.8 2.96,-4.24 z m 4.04,13.56 h -4.76 v -6.84 h 4.76 z m 2,14.28 c -3.48,0 -4.08,-0.32 -4.08,-1.8 v -9.96 h 4.84 v -10.64 h 4.76 c -0.48,8 -1.96,14.04 -6.96,17.76 0.64,0.4 1.6,1.4 1.92,2.04 5.6,-4.2 7.28,-10.92 7.84,-19.8 h 5.48 c -0.36,10.8 -0.8,14.72 -1.6,15.64 -0.32,0.48 -0.64,0.56 -1.24,0.56 -0.64,0 -2.04,-0.04 -3.6,-0.16 0.44,0.76 0.72,1.92 0.8,2.8 1.56,0.08 3.16,0.08 4.08,-0.04 1.04,-0.12 1.76,-0.44 2.4,-1.28 1.16,-1.48 1.52,-5.96 2,-19 v -1.32 h -8.2 c 0.08,-2.44 0.12,-5.08 0.16,-7.8 h -2.8 c -0.04,2.76 -0.04,5.36 -0.12,7.8 h -4.92 v 1.6 h -6.28 c 1.12,-1.76 2.24,-3.88 2.96,-5.68 l -1.76,-1.08 -0.44,0.12 h -5.48 c 0.44,-0.92 0.84,-1.84 1.2,-2.72 l -2.72,-0.44 c -1.28,3.4 -3.72,7.72 -7.52,10.92 0.64,0.36 1.56,1.2 2,1.72 l 0.64,-0.6 v 9.6 h 4.12 c -0.48,5.32 -1.8,10.28 -6.76,12.84 0.6,0.52 1.48,1.6 1.88,2.24 5.48,-3.12 6.96,-8.72 7.56,-15.08 h 3 v 10 c 0,3.44 1.4,4.28 6.88,4.28 h 12 c 4.28,0 5.24,-1.16 5.72,-5.8 -0.76,-0.16 -1.92,-0.6 -2.56,-1.04 -0.28,3.68 -0.68,4.32 -3.28,4.32 z"
         style="font-style:normal;font-variant:normal;font-weight:normal;font-stretch:normal;font-family:C059;-inkscape-font-specification:C059;fill:#d45500;fill-opacity:1"
         id="path982"
         inkscape:connector-curvature="0" />
      <path
         d="m 665.36504,181.36761 c 0.16,-1.72 0.36,-3.52 0.48,-5.28 h 8.04 v -11.44 h -11.16 v 2.68 h 8.32 v 6.08 h -7.6 c -0.24,3.76 -0.8,8.84 -1.28,11.92 l 2.64,0.44 c 0.08,-0.56 0.16,-1.16 0.24,-1.8 h 6.04 c -0.4,7.96 -0.92,11.08 -1.64,11.88 -0.32,0.36 -0.72,0.44 -1.4,0.44 -0.72,0 -2.6,0 -4.6,-0.2 0.48,0.8 0.8,2 0.88,2.88 1.96,0.12 3.84,0.12 4.92,0 1.16,-0.08 1.88,-0.32 2.56,-1.16 1.16,-1.32 1.56,-5.04 2.08,-15.12 0.04,-0.44 0.04,-1.32 0.04,-1.32 z m 13.8,4.32 v -5.68 h 5.96 v 5.68 z m 14.8,-5.68 v 5.68 h -6 v -5.68 z m 5.24,18.2 c -1,-2.56 -3.6,-6.28 -6,-9.04 l -2.4,1.16 c 0.96,1.16 2,2.48 2.88,3.8 l -5.72,0.44 v -6.36 h 8.84 v -10.72 h -8.84 v -4.36 c 2.2,-0.12 4.48,-0.28 6.72,-0.44 0.64,0.88 1.16,1.72 1.52,2.44 l 2.6,-1.4 c -1.24,-2.28 -4,-5.64 -6.48,-8.04 l -2.44,1.2 c 1,1 2,2.16 2.96,3.32 -3.84,0.24 -7.68,0.44 -11.08,0.6 1.44,-2.28 3.04,-5.08 4.32,-7.52 l -3.12,-0.84 c -1.04,2.56 -2.76,6 -4.32,8.48 l -3.4,0.16 0.4,2.84 c 2.68,-0.16 5.96,-0.36 9.48,-0.6 v 4.16 h -8.68 v 10.72 h 8.68 v 6.56 c -4,0.28 -7.64,0.52 -10.44,0.68 l 0.4,2.92 c 5.24,-0.44 12.92,-1.04 20.24,-1.68 0.56,1 1.04,1.96 1.36,2.76 z"
         style="font-style:normal;font-variant:normal;font-weight:normal;font-stretch:normal;font-family:C059;-inkscape-font-specification:C059;fill:#d45500;fill-opacity:1"
         id="path984"
         inkscape:connector-curvature="0" />
    </g>
  </g>
  <metadata
     id="metadata948">
    <rdf:RDF>
      <cc:Work>
        <dc:format>image/svg+xml</dc:format>
        <dc:type
           rdf:resource="http://purl.org/dc/dcmitype/StillImage" />
        <cc:license
           rdf:resource="http://creativecommons.org/licenses/publicdomain/" />
        <dc:publisher>
          <cc:Agent
             rdf:about="http://openclipart.org/">
            <dc:title>Openclipart</dc:title>
          </cc:Agent>
        </dc:publisher>
        <dc:title>Yamanote Train</dc:title>
        <dc:date>2012-04-27T09:14:16</dc:date>
        <dc:description>Nothing says &quot;Tokyo&quot; more than the Yamanote line. It cuts through the heart of downtown, carrying millions of passengers a day. I didn't see any clipart on here, and so I cooked up something myself. I'm not the best artist, but I hope this helps someone who needs clipart of a Japanese train. Hey maybe for a presentation about Japan for your class? Or maybe for your Train Lovers Group that meets on every Monday to eat meat and talk about trains? No? What?</dc:description>
        <dc:source>https://openclipart.org/detail/169711/yamanote-train-by-j4p4n</dc:source>
        <dc:creator>
          <cc:Agent>
            <dc:title>j4p4n</dc:title>
          </cc:Agent>
        </dc:creator>
        <dc:subject>
          <rdf:Bag>
            <rdf:li>JR</rdf:li>
            <rdf:li>japan</rdf:li>
            <rdf:li>tokyo</rdf:li>
            <rdf:li>train</rdf:li>
            <rdf:li>transportation</rdf:li>
            <rdf:li>yamanote</rdf:li>
            <rdf:li>å±±æ‰‹ç·š</rdf:li>
            <rdf:li>æ±äº¬</rdf:li>
          </rdf:Bag>
        </dc:subject>
      </cc:Work>
      <cc:License
         rdf:about="http://creativecommons.org/licenses/publicdomain/">
        <cc:permits
           rdf:resource="http://creativecommons.org/ns#Reproduction" />
        <cc:permits
           rdf:resource="http://creativecommons.org/ns#Distribution" />
        <cc:permits
           rdf:resource="http://creativecommons.org/ns#DerivativeWorks" />
      </cc:License>
    </rdf:RDF>
  </metadata>
</svg>
