<?xml version="1.0" encoding="UTF-8" standalone="no"?>
<!-- Created with Inkscape (http://www.inkscape.org/) -->
<svg xmlns:rdf="http://www.w3.org/1999/02/22-rdf-syntax-ns#" xmlns="http://www.w3.org/2000/svg" xmlns:cc="http://web.resource.org/cc/" xmlns:dc="http://purl.org/dc/elements/1.1/" xmlns:svg="http://www.w3.org/2000/svg" xmlns:inkscape="http://www.inkscape.org/namespaces/inkscape" xmlns:sodipodi="http://sodipodi.sourceforge.net/DTD/sodipodi-0.dtd" xmlns:ns1="http://sozi.baierouge.fr" xmlns:xlink="http://www.w3.org/1999/xlink" id="svg2" viewBox="0 0 425.43 238.56" version="1.0" inkscape:version="0.91 r13725">
  <g id="layer1" transform="translate(-128.52 -202.24)">
    <path id="path2499" style="fill-rule:evenodd;stroke:#000000;stroke-width:1.076px;fill:#1a1a1a" d="m129.06 330.93l9.07 38.27 286.25 71.05 114.08-16.64 5.33-54.05-410.46-42.26-4.27 3.63z"/>
    <path id="path2453" style="fill-rule:evenodd;stroke:#000000;stroke-width:1px;fill:#f2f2f2" d="m129.97 279.78l279.29-73.51-6.36 16.97-272.81 61.49-0.12-4.95z"/>
    <path id="path2455" style="fill-rule:evenodd;stroke:#000000;stroke-width:1px;fill:#f9f9f9" d="m408.38 206.28l48.95-3.54 21.91 2.12 22.62 4.24 43.12 16.96 3.53 4.24 3.53 24.04 0.71 63.61 0.71 6.36-3.54 27.57-4.94 21.21-106.74 5.65-31.1-2.12-2.12-12.02-4.24-26.86 2.83-104.61-2.26-11.1 7.03-15.75z"/>
    <path id="path2457" style="stroke:#000000;stroke-width:1px;fill:none" d="m430.47 211.93l-2.12 118.04 1.41 7.77 115.92 0.71 3.54-7.07v-72.1l-2.83-26.86-8.48-4.94-22.62-9.9-40.29-7.77-44.53 2.12z"/>
    <path id="path2459" style="fill-rule:evenodd;stroke:#000000;stroke-width:1px;fill:#71c837" d="m429.19 310.18l119.32 3.53 0.91 16.97-2.03 6.46-2.22 0.6-114.7-0.2-1.42-4.74 0.14-22.62z"/>
    <path id="path2461" style="fill-rule:evenodd;stroke:#000000;stroke-width:1px;fill:#333333" d="m430.26 232.36l117.3 15.46-1.6-16.53-30.93-14.39-40.52-6.93-43.72 1.6-0.53 20.79z"/>
    <path id="path2463" style="fill-rule:evenodd;stroke:#000000;stroke-width:1px;fill:#cccccc" d="m406.8 376.31l-277.77-45.32 1.06-46.91 271.06-61.32 1.92 10.13-2.67 107.17 6.4 36.25z"/>
    <path id="path2467" style="fill-rule:evenodd;stroke:#000000;stroke-width:1px;fill:#f9f9f9" d="m400.4 401.9l15.47 4.8 2.66-8.53h34.66l1.6-12.26 13.33-1.6 1.06 11.2 3.73 1.06 42.12-4.8 0.54-9.59 9.06-1.6 2.13 12.26 12.8-1.6v19.73l-6.4 9.06-57.58 8.53-38.39 2.67-21.86-6.4-12.79-11.73-3.2-4.26 1.06-6.94z"/>
    <path id="path2539" style="fill-rule:evenodd;stroke:#71c837;stroke-width:.99862px;fill:#71c837" d="m376.9 324.53l1.4 17.89-247.99-20v-8.07l246.24 6.67 0.35 3.51z"/>
    <path id="path2473" style="fill-rule:evenodd;stroke:#000000;stroke-width:1px;fill:#71c837" d="m373.21 245.16l-1.06 79.97 2.13 33.59 21.33 2.66-3.74-33.05 2.67-87.97-21.33 4.8z"/>
    <path id="path2537" style="fill-rule:evenodd;stroke:#8dd35f;stroke-width:.96437px;fill:#8dd35f" d="m131.15 284.17l-0.28 5.9 271.23-53.36-0.18-3.27-1.71-9.56-269.06 60.29z"/>
    <path id="path2475" style="fill-rule:evenodd;stroke:#000000;stroke-width:1px;fill:#afdde9" d="m266.58 267.55l-2.13 35.72 3.2 6.93h25.06l2.66-5.33v-39.99l-3.2-1.6-25.59 4.27z"/>
    <path id="path2477" style="fill-rule:evenodd;stroke:#000000;stroke-width:1px;fill:#b3b3b3" d="m237.79 342.72l17.59 2.14-2.66-17.06 0.53-61.32-17.59 3.2-1.6 51.72 3.73 21.32z"/>
    <path id="path2479" style="fill-rule:evenodd;stroke:#000000;stroke-width:1px;fill:#afdde9" d="m203.84 280.07l-0.17 29.6 19.1-0.43 3.29-29.43-2.13-3.73-20.09 3.99z"/>
    <path id="path2481" style="fill-rule:evenodd;stroke:#000000;stroke-width:1px;fill:#b3b3b3" d="m186.07 279.81l0.54 54.92 10.13 1.06v-57.58l-10.67 1.6z"/>
    <path id="path2487" style="fill-rule:evenodd;stroke:#000000;stroke-width:1px;fill:#afdde9" d="m166.25 310.49l12.36-0.29 1.07-26.12-12.71 2.73-0.72 23.68z"/>
    <path id="path2489" style="fill-rule:evenodd;stroke:#000000;stroke-width:1px;fill:#b3b3b3" d="m154.62 285.68l0.53 44.25 6.4 0.53v-45.85l-6.93 1.07z"/>
    <path id="path2491" style="fill-rule:evenodd;stroke:#000000;stroke-width:1px;fill:#afdde9" d="m149.82 289.04l-1.16 20.52-8.97 0.11 1.14-18.3 8.99-2.33z"/>
    <path id="path2493" style="fill-rule:evenodd;stroke:#000000;stroke-width:1px;fill:#333333" d="m433.78 356.59l1.6 9.59 23.99-1.06-0.53-11.2-25.06 2.67z"/>
    <path id="path2495" style="fill-rule:evenodd;stroke:#000000;stroke-width:1px;fill:#333333" d="m517.1 352.85l-0.34 10.85 21.86-1.07 0.87-9.24-22.39-0.54z"/>
    <path id="path2497" style="fill-rule:evenodd;stroke:#000000;stroke-width:1.0021px;fill:#d5f6ff" d="m430.27 232.36l-1.07 77.31 119.38 3.2 0.54-55.45-2.14-9.07-116.71-15.99z"/>
    <path id="path2471" style="fill-rule:evenodd;stroke:#000000;stroke-width:1px;fill:#b3b3b3" d="m311.9 256.35l35.19-6.93-1.07 79.44 3.2 27.19-34.12-4.8-2.67-37.32-0.53-57.58z"/>
    <path id="path2501" style="stroke:#000000;stroke-width:1px;fill:none" d="m326.12 253.39l-0.4 72.15 2.82 27.42"/>
    <path id="path2503" style="stroke:#000000;stroke-width:1px;fill:none" d="m243.89 268.3l-2.42 51.6 4.83 23.38"/>
    <path id="path2505" style="stroke:#000000;stroke-width:1px;fill:none" d="m190.67 279.19l0.81 56.03"/>
    <path id="path2507" style="stroke:#000000;stroke-width:1px;fill:none" d="m157.22 285.23l0.8 44.75"/>
    <path id="path2509" style="fill-rule:evenodd;stroke:#000000;stroke-width:1px;fill:#afdde9" d="m376.51 250.16l-0.4 43.94 12.09-1.21 1.12-45.94-12.81 3.21z"/>
    <path id="path2513" style="fill-rule:evenodd;stroke:#000000;stroke-width:1px;fill:#afdde9" d="m314.03 259.84l8.06-2.02 0.58 40.73-9.05 1.19 0.41-39.9z"/>
    <path id="path2515" style="fill-rule:evenodd;stroke:#000000;stroke-width:1px;fill:#afdde9" d="m328.54 257.38v41.56l13.62-1.35-0.23-43.34-13.39 3.13z"/>
    <path id="path2519" style="fill-rule:evenodd;stroke:#000000;stroke-width:1px;fill:#afdde9" d="m237.03 272.33l-0.8 37.9 3.22-0.41 1.61-38.29-4.03 0.8z"/>
    <path id="path2521" style="fill-rule:evenodd;stroke:#000000;stroke-width:1px;fill:#afdde9" d="m245.5 271.53l5.64-1.62-1.21 39.91h-6.04l1.61-38.29z"/>
    <path id="path2527" style="fill-rule:evenodd;stroke:#000000;stroke-width:1px;fill:#afdde9" d="m192.29 281.81v25.59l2.42-0.4-0.41-25.8-2.01 0.61z"/>
    <path id="path2529" style="fill-rule:evenodd;stroke:#000000;stroke-width:1px;fill:#afdde9" d="m187.31 282.43l0.26 25.34 2.02-0.35-0.44-25.42-1.84 0.43z"/>
    <path id="path2531" style="stroke:#000000;stroke-width:1px;fill:none" d="m158.81 288.05l0.44 23.5 0.61-23.59-1.05 0.09z"/>
    <path id="path2533" style="stroke:#000000;stroke-width:1px;fill:none" d="m155.92 288.23l0.17 18.06 0.17 4.73"/>
    <path id="path2548" style="fill-rule:evenodd;stroke:#000000;stroke-width:1px;fill:#1a1a1a" d="m466.17 215.09l-1.41 12.98 51.92 7.01 1.05-12.98-51.56-7.01z"/>
    <path id="text2544" style="fill:#d45500" d="m473.97 224.94l0.38-2.71 1.98 0.28c0.11 0.02 0.2-0.1 0.22-0.25s-0.03-0.27-0.14-0.28l-1.99-0.28 0.26-1.88c0.02-0.15-0.06-0.24-0.2-0.26-0.15-0.02-0.27 0.04-0.29 0.19l-0.71 5.12-2.1-0.29c-0.11-0.02-0.2 0.09-0.22 0.23s0.03 0.28 0.15 0.3l5.04 0.7c0.12 0.02 0.2-0.1 0.22-0.24 0.02-0.15-0.03-0.27-0.15-0.29l-2.45-0.34m5.04-0.87l0.1-0.68 0.59 0.08c0.34 0.05 0.53-0.09 0.58-0.46l0.27-1.9c0.05-0.38-0.1-0.55-0.44-0.6l-1.58-0.22c-0.34-0.05-0.52 0.08-0.57 0.46l-0.27 1.9c-0.05 0.37 0.09 0.55 0.43 0.6l0.58 0.08-0.09 0.68-0.99-0.13c-0.11-0.02-0.18 0.06-0.2 0.2-0.01 0.13 0.03 0.24 0.13 0.25l0.99 0.14-0.13 0.93c-0.37 0.01-0.75 0.01-1.08-0.01-0.12-0.01-0.21 0.07-0.23 0.2 0 0.01-0.01 0.03-0.01 0.04 0 0.16 0.07 0.27 0.2 0.29h0.03c0.79 0.01 1.74-0.05 2.51-0.16 0.12-0.02 0.18-0.09 0.2-0.2v-0.07c-0.01-0.12-0.05-0.18-0.14-0.2-0.03 0-0.06 0-0.09 0.01-0.3 0.04-0.63 0.07-0.97 0.08l0.12-0.85 0.96 0.13c0.11 0.02 0.17-0.07 0.19-0.2 0.02-0.14-0.02-0.24-0.12-0.25l-0.97-0.14m0.05-3.26l-0.12 0.82-0.68-0.09 0.09-0.66c0.02-0.13 0.08-0.16 0.19-0.14l0.52 0.07m0.4 0.06l0.53 0.07c0.11 0.02 0.16 0.06 0.15 0.19l-0.1 0.65-0.69-0.09 0.11-0.82m-0.58 1.17l-0.12 0.86-0.51-0.07c-0.11-0.02-0.16-0.06-0.14-0.19l0.09-0.7 0.68 0.1m0.41 0.06l0.7 0.09-0.1 0.7c-0.02 0.13-0.08 0.16-0.19 0.14l-0.53-0.07 0.12-0.86m2.05 1.24l-0.36 2.6c-0.03 0.2-0.1 0.25-0.29 0.22-0.13-0.01-0.31-0.07-0.42-0.11-0.01-0.01-0.03-0.01-0.05-0.01-0.09-0.02-0.19 0.05-0.22 0.17-0.01 0.02-0.01 0.04-0.01 0.06-0.02 0.13 0.03 0.23 0.14 0.27 0.14 0.05 0.35 0.1 0.53 0.13 0.48 0.07 0.69-0.11 0.74-0.54l0.39-2.72 0.7 0.1c0.05 0 0.08 0.02 0.08 0.06-0.01 0.01-0.01 0.03-0.03 0.05-0.17 0.26-0.41 0.51-0.6 0.66-0.06 0.05-0.1 0.1-0.1 0.16-0.01 0.07 0 0.13 0.04 0.19s0.09 0.09 0.14 0.1 0.12-0.02 0.17-0.07c0.27-0.22 0.55-0.57 0.73-0.86 0.07-0.11 0.11-0.2 0.12-0.3 0.04-0.23-0.09-0.4-0.34-0.44l-0.83-0.11c0.04-0.01 0.09-0.02 0.14-0.05 0.05-0.05 0.09-0.1 0.09-0.16 0.01-0.05 0-0.12-0.05-0.19-0.03-0.04-0.06-0.09-0.09-0.14 0.33-0.2 0.66-0.45 0.98-0.77 0.09-0.11 0.15-0.22 0.17-0.32 0.03-0.21-0.1-0.4-0.36-0.44l-1.78-0.25c-0.1-0.01-0.17 0.08-0.19 0.22-0.02 0.13 0.02 0.24 0.12 0.25l1.56 0.22c0.05 0.01 0.09 0.03 0.08 0.07 0 0.03-0.02 0.06-0.06 0.1-0.19 0.19-0.48 0.42-0.77 0.59-0.14-0.18-0.3-0.35-0.43-0.49-0.04-0.04-0.09-0.07-0.13-0.08-0.05 0-0.1 0.02-0.15 0.06s-0.08 0.09-0.08 0.15c-0.01 0.06 0.01 0.12 0.06 0.17 0.24 0.27 0.52 0.63 0.69 0.94 0.04 0.06 0.09 0.09 0.15 0.11l-1.23-0.17c-0.1-0.02-0.17 0.08-0.19 0.21s0.02 0.24 0.13 0.25l0.81 0.11m4.9 0.34c-0.3-0.04-0.57 0.2-0.62 0.54s0.15 0.65 0.45 0.69c0.29 0.04 0.57-0.2 0.62-0.54 0.05-0.33-0.16-0.65-0.45-0.69m5.87-0.58l-0.07 0.53-1.46-0.2c-0.37-0.05-0.55 0.07-0.61 0.47l-0.19 1.39c-0.06 0.38 0.08 0.56 0.45 0.62l1.12 0.15c-0.28 0.26-0.65 0.5-1.03 0.7-0.42 0.21-0.87 0.34-1.19 0.41-0.08 0.02-0.13 0.06-0.17 0.12-0.01 0.03-0.02 0.06-0.03 0.1 0 0.04 0 0.08 0.01 0.12 0.02 0.12 0.08 0.18 0.18 0.2 0.04 0 0.08 0 0.14-0.01 0.34-0.09 0.85-0.27 1.28-0.51 0.34-0.19 0.84-0.57 1.19-0.96-0.07 0.2-0.12 0.42-0.14 0.59l-0.18 1.26c-0.01 0.12 0.06 0.2 0.19 0.22s0.22-0.04 0.24-0.16l0.18-1.26c0.02-0.17 0.04-0.4 0.02-0.6 0.23 0.45 0.63 0.98 0.98 1.3 0.36 0.33 0.84 0.66 1.19 0.83 0.03 0.01 0.06 0.03 0.09 0.03 0.1 0.01 0.19-0.04 0.24-0.16 0.01-0.04 0.02-0.08 0.03-0.11 0.01-0.12-0.03-0.19-0.15-0.25-0.32-0.16-0.73-0.42-1.08-0.7-0.32-0.26-0.67-0.65-0.91-1.01l1.27 0.18c0.37 0.05 0.56-0.08 0.61-0.47l0.19-1.39c0.06-0.39-0.09-0.57-0.46-0.62l-1.58-0.22 0.08-0.53 2.43 0.34c0.1 0.01 0.18-0.09 0.2-0.22 0.02-0.14-0.03-0.25-0.14-0.26l-2.42-0.34 0.07-0.51c0.01-0.13-0.06-0.21-0.19-0.22-0.13-0.02-0.22 0.03-0.24 0.16l-0.07 0.51-2.29-0.32c-0.1-0.02-0.18 0.07-0.2 0.21s0.03 0.25 0.14 0.27l2.28 0.32m0.21 1.62l0.08-0.58 1.47 0.21c0.14 0.02 0.2 0.07 0.18 0.24l-0.05 0.37-1.68-0.24m-0.43-0.06l-1.54-0.21 0.05-0.37c0.02-0.17 0.1-0.2 0.24-0.19l1.33 0.19-0.08 0.58m-0.06 0.43l-0.08 0.58-1.34-0.19c-0.13-0.02-0.2-0.08-0.18-0.24l0.06-0.37 1.54 0.22m0.43 0.06l1.68 0.23-0.06 0.38c-0.02 0.15-0.1 0.19-0.23 0.17l-1.47-0.2 0.08-0.58m6.34-1.52l0.09-0.62c0.02-0.13-0.08-0.21-0.22-0.23s-0.25 0.03-0.27 0.16l-0.08 0.62-2.27-0.32c-0.11-0.01-0.18 0.09-0.2 0.23s0.03 0.25 0.13 0.27l5.09 0.71c0.1 0.01 0.18-0.09 0.19-0.22 0.02-0.14-0.02-0.26-0.12-0.27l-2.34-0.33m-0.84 2.92l-0.23 1.65c-0.03 0.22-0.11 0.28-0.31 0.25-0.11-0.01-0.31-0.07-0.42-0.12-0.01-0.01-0.03-0.01-0.05-0.01-0.07-0.01-0.15 0.04-0.2 0.16-0.01 0.03-0.01 0.05-0.01 0.08-0.02 0.11 0.03 0.21 0.11 0.24 0.17 0.08 0.39 0.13 0.59 0.16 0.44 0.06 0.68-0.09 0.74-0.54l0.25-1.81 1.18 0.17c0.34 0.05 0.51-0.09 0.57-0.48l0.12-0.86c0.05-0.4-0.08-0.58-0.41-0.63l-2.91-0.4c-0.33-0.05-0.51 0.09-0.56 0.49l-0.12 0.85c-0.06 0.4 0.07 0.58 0.41 0.62l1.25 0.18m-1.06-0.62c-0.11-0.02-0.16-0.06-0.14-0.2l0.1-0.67c0.02-0.15 0.07-0.17 0.19-0.16l2.64 0.37c0.11 0.02 0.16 0.06 0.14 0.2l-0.09 0.67c-0.02 0.15-0.08 0.17-0.19 0.16l-2.65-0.37m2.31 1.2c-0.08 0.04-0.12 0.11-0.13 0.19-0.01 0.04 0 0.08 0.01 0.12 0.21 0.57 0.67 1.24 1.04 1.63 0.03 0.04 0.07 0.06 0.12 0.06 0.08 0.01 0.16-0.02 0.22-0.09 0.04-0.05 0.06-0.1 0.07-0.16 0.01-0.09-0.01-0.18-0.08-0.24-0.35-0.38-0.73-0.9-0.95-1.42-0.02-0.07-0.08-0.11-0.15-0.12-0.05-0.01-0.1 0-0.15 0.03m-2.26-0.32c-0.04-0.03-0.09-0.05-0.13-0.06-0.07-0.01-0.13 0.01-0.17 0.07-0.32 0.45-0.77 0.84-1.27 1.12-0.07 0.04-0.12 0.11-0.13 0.19-0.01 0.06 0.01 0.12 0.03 0.17 0.04 0.07 0.1 0.12 0.18 0.13 0.05 0.01 0.1 0 0.14-0.02 0.49-0.28 1.05-0.76 1.39-1.27 0.03-0.04 0.05-0.08 0.05-0.12 0.01-0.08-0.02-0.15-0.09-0.21m6.71-1.66c-0.33 2.09-1.1 3.23-2.38 3.82-0.09 0.04-0.14 0.11-0.15 0.2-0.01 0.06 0 0.13 0.03 0.19 0.03 0.09 0.1 0.13 0.17 0.14 0.05 0.01 0.12-0.01 0.17-0.03 1.08-0.54 1.82-1.33 2.32-2.85l1.68 0.24c0.14 0.02 0.2 0.07 0.17 0.22-0.11 0.82-0.37 1.65-0.53 2.05-0.09 0.23-0.2 0.3-0.48 0.26-0.18-0.03-0.4-0.1-0.55-0.16-0.03-0.01-0.05-0.02-0.08-0.02-0.1-0.01-0.18 0.05-0.22 0.18-0.02 0.03-0.02 0.06-0.03 0.08-0.02 0.13 0.04 0.24 0.15 0.27 0.2 0.09 0.46 0.15 0.71 0.19 0.44 0.06 0.69-0.07 0.88-0.47 0.21-0.42 0.51-1.47 0.65-2.44 0.06-0.41-0.09-0.61-0.46-0.66l-1.74-0.24c0.08-0.3 0.14-0.6 0.2-0.9l2.81 0.39c0.11 0.02 0.19-0.09 0.21-0.23 0.02-0.15-0.02-0.28-0.14-0.29l-2.31-0.33 0.12-0.87c0.02-0.13-0.08-0.22-0.21-0.24-0.14-0.01-0.26 0.04-0.28 0.17l-0.12 0.87-2.23-0.31c-0.12-0.02-0.2 0.09-0.22 0.24-0.02 0.14 0.03 0.27 0.14 0.29l1.72 0.24m3.72 4.46c-0.07 0.43 0.1 0.66 0.47 0.71l3.87 0.54c0.38 0.06 0.6-0.11 0.66-0.54l0.46-3.27c0.06-0.42-0.11-0.63-0.49-0.69l-2.08-0.29c0.17-0.26 0.32-0.55 0.45-0.84l2.38 0.33c0.1 0.02 0.18-0.07 0.2-0.22 0.02-0.14-0.03-0.25-0.14-0.26l-5.09-0.72c-0.12-0.01-0.19 0.08-0.21 0.23-0.02 0.14 0.03 0.24 0.14 0.26l2.23 0.31c-0.12 0.3-0.28 0.58-0.46 0.84l-1.29-0.18c-0.37-0.05-0.59 0.11-0.65 0.53l-0.45 3.26m0.9-3.08c0.03-0.2 0.1-0.25 0.3-0.22l0.65 0.09-0.5 3.56-0.65-0.09c-0.2-0.03-0.25-0.11-0.23-0.3l0.43-3.04m0.89 3.49l0.12-0.92 1.32 0.19-0.13 0.91-1.31-0.18m1.75 0.24l0.5-3.55 0.71 0.09c0.2 0.03 0.26 0.1 0.23 0.3l-0.43 3.04c-0.02 0.19-0.1 0.25-0.3 0.22l-0.71-0.1m0.06-3.62l-0.12 0.88-1.32-0.19 0.12-0.87 1.32 0.18m-1.5 1.15l1.32 0.18-0.13 0.87-1.31-0.19 0.12-0.86"/>
    <g id="g2568" style="fill:#f9f9f9" transform="matrix(1.395 -.027015 .027835 1.4374 -271.51 -143.96)">
      <path id="text2558" style="fill:#f9f9f9" d="m574.64 333.51v5.83c0 0.56-0.14 0.98-0.42 1.26-0.27 0.28-0.69 0.41-1.25 0.41h-1.66c-0.56 0-0.98-0.13-1.26-0.41-0.27-0.28-0.41-0.7-0.41-1.26v-1.66h1.67v1.66c0 0.24 0.08 0.44 0.24 0.6 0.17 0.16 0.36 0.24 0.59 0.24s0.42-0.08 0.58-0.24c0.17-0.16 0.25-0.36 0.25-0.6v-5.83h1.67"/>
      <path id="text2562" style="fill:#f9f9f9" d="m572.93 340.66v-7.5h3.34c0.45 0 0.84 0.17 1.17 0.5 0.32 0.33 0.49 0.72 0.49 1.17v0.45c0 0.37-0.13 0.73-0.38 1.08-0.26 0.34-0.68 0.51-1.28 0.51 2.02 0.53 1.37 0.98 1.68 1.94l-0.02 1.85h-1.66v-2.5c0-0.23-0.09-0.42-0.25-0.58-0.16-0.17-0.36-0.25-0.59-0.25h-0.83l-0.86 2.19-0.81 1.14m1.67-4.17h0.83c0.23 0 0.43-0.08 0.59-0.24 0.16-0.17 0.25-0.36 0.25-0.59v-0.83c0-0.23-0.09-0.43-0.25-0.59-0.16-0.17-0.36-0.25-0.59-0.25h-0.83v2.5"/>
    </g>
    <path id="path2572" style="fill-rule:evenodd;stroke:#000000;stroke-width:1.0041px;fill:#333333" d="m429.3 293.03l0.5 16.38 118.6 2.98v-16.38l-119.1-4.96v1.98z"/>
    <path id="path2574" style="fill-rule:evenodd;stroke:#000000;stroke-miterlimit:2.8;fill:#d4aa00" d="m447.66 360.78a4.2185 4.2185 0 1 1 -8.44 0 4.2185 4.2185 0 1 1 8.44 0z"/>
    <path id="path2576" style="fill-rule:evenodd;stroke:#000000;stroke-miterlimit:2.8;fill:#d4aa00" d="m447.66 360.78a4.2185 4.2185 0 1 1 -8.44 0 4.2185 4.2185 0 1 1 8.44 0z" transform="matrix(.94836 0 0 .93056 110.74 22.494)"/>
  </g>
  <metadata>
    <rdf:RDF>
      <cc:Work>
        <dc:format>image/svg+xml</dc:format>
        <dc:type rdf:resource="http://purl.org/dc/dcmitype/StillImage"/>
        <cc:license rdf:resource="http://creativecommons.org/licenses/publicdomain/"/>
        <dc:publisher>
          <cc:Agent rdf:about="http://openclipart.org/">
            <dc:title>Openclipart</dc:title>
          </cc:Agent>
        </dc:publisher>
        <dc:title>Yamanote Train</dc:title>
        <dc:date>2012-04-27T09:14:16</dc:date>
        <dc:description>Nothing says "Tokyo" more than the Yamanote line. It cuts through the heart of downtown, carrying millions of passengers a day. I didn't see any clipart on here, and so I cooked up something myself. I'm not the best artist, but I hope this helps someone who needs clipart of a Japanese train. Hey maybe for a presentation about Japan for your class? Or maybe for your Train Lovers Group that meets on every Monday to eat meat and talk about trains? No? What?</dc:description>
        <dc:source>https://openclipart.org/detail/169711/yamanote-train-by-j4p4n</dc:source>
        <dc:creator>
          <cc:Agent>
            <dc:title>j4p4n</dc:title>
          </cc:Agent>
        </dc:creator>
        <dc:subject>
          <rdf:Bag>
            <rdf:li>JR</rdf:li>
            <rdf:li>japan</rdf:li>
            <rdf:li>tokyo</rdf:li>
            <rdf:li>train</rdf:li>
            <rdf:li>transportation</rdf:li>
            <rdf:li>yamanote</rdf:li>
            <rdf:li>å±±æ‰‹ç·š</rdf:li>
            <rdf:li>æ±äº¬</rdf:li>
          </rdf:Bag>
        </dc:subject>
      </cc:Work>
      <cc:License rdf:about="http://creativecommons.org/licenses/publicdomain/">
        <cc:permits rdf:resource="http://creativecommons.org/ns#Reproduction"/>
        <cc:permits rdf:resource="http://creativecommons.org/ns#Distribution"/>
        <cc:permits rdf:resource="http://creativecommons.org/ns#DerivativeWorks"/>
      </cc:License>
    </rdf:RDF>
  </metadata>
</svg>
